<mxfile host="app.diagrams.net" modified="2024-01-12T07:43:59.466Z" agent="Mozilla/5.0 (Macintosh; Intel Mac OS X 10_15_7) AppleWebKit/537.36 (KHTML, like Gecko) Chrome/120.0.0.0 Safari/537.36" etag="25plDDlcKo8z3B0eoHYR" version="22.1.18" type="device" pages="4">
  <diagram id="ZoFCq1idDvLcv-Y_8094" name="ML_architecture">
    <mxGraphModel dx="3580" dy="2167" grid="0" gridSize="10" guides="1" tooltips="1" connect="1" arrows="1" fold="1" page="0" pageScale="1" pageWidth="1169" pageHeight="827" math="0" shadow="0">
      <root>
        <mxCell id="0" />
        <mxCell id="1" parent="0" />
        <mxCell id="aiSzK5rX2R9y6aixbrk_-143" style="edgeStyle=orthogonalEdgeStyle;rounded=0;orthogonalLoop=1;jettySize=auto;html=1;entryX=0.5;entryY=1;entryDx=0;entryDy=0;dashed=1;dashPattern=1 2;strokeWidth=2;strokeColor=#999999;endArrow=open;endFill=0;startArrow=open;startFill=0;" edge="1" parent="1" source="aiSzK5rX2R9y6aixbrk_-133" target="aiSzK5rX2R9y6aixbrk_-142">
          <mxGeometry relative="1" as="geometry">
            <Array as="points">
              <mxPoint x="137" y="1296" />
              <mxPoint x="2109" y="1296" />
            </Array>
          </mxGeometry>
        </mxCell>
        <mxCell id="aiSzK5rX2R9y6aixbrk_-133" value="" style="rounded=1;whiteSpace=wrap;html=1;" vertex="1" parent="1">
          <mxGeometry x="-75" y="-77" width="476" height="922" as="geometry" />
        </mxCell>
        <mxCell id="aiSzK5rX2R9y6aixbrk_-1" value="" style="sketch=0;outlineConnect=0;fontColor=#232F3E;gradientColor=none;strokeColor=#232F3E;fillColor=#ffffff;dashed=0;verticalLabelPosition=bottom;verticalAlign=top;align=center;html=1;fontSize=12;fontStyle=0;aspect=fixed;shape=mxgraph.aws4.resourceIcon;resIcon=mxgraph.aws4.mobile_client;" vertex="1" parent="1">
          <mxGeometry x="-65" y="-40" width="110" height="110" as="geometry" />
        </mxCell>
        <mxCell id="aiSzK5rX2R9y6aixbrk_-33" value="" style="edgeStyle=orthogonalEdgeStyle;rounded=0;orthogonalLoop=1;jettySize=auto;html=1;strokeWidth=2;" edge="1" parent="1" source="aiSzK5rX2R9y6aixbrk_-2" target="aiSzK5rX2R9y6aixbrk_-4">
          <mxGeometry relative="1" as="geometry" />
        </mxCell>
        <mxCell id="aiSzK5rX2R9y6aixbrk_-2" value="" style="verticalLabelPosition=bottom;html=1;verticalAlign=top;align=center;strokeColor=none;fillColor=#00BEF2;shape=mxgraph.azure.website_generic;pointerEvents=1;" vertex="1" parent="1">
          <mxGeometry x="110.22499999999995" y="-11" width="97.85" height="73.5" as="geometry" />
        </mxCell>
        <mxCell id="aiSzK5rX2R9y6aixbrk_-3" value="" style="html=1;verticalLabelPosition=bottom;align=center;labelBackgroundColor=#ffffff;verticalAlign=top;strokeWidth=2;strokeColor=#0080F0;shadow=0;dashed=0;shape=mxgraph.ios7.icons.data;" vertex="1" parent="1">
          <mxGeometry x="309" y="-22" width="67" height="77.63" as="geometry" />
        </mxCell>
        <mxCell id="aiSzK5rX2R9y6aixbrk_-32" value="" style="edgeStyle=orthogonalEdgeStyle;rounded=0;orthogonalLoop=1;jettySize=auto;html=1;strokeWidth=2;" edge="1" parent="1" source="aiSzK5rX2R9y6aixbrk_-4" target="aiSzK5rX2R9y6aixbrk_-10">
          <mxGeometry relative="1" as="geometry" />
        </mxCell>
        <mxCell id="aiSzK5rX2R9y6aixbrk_-4" value="&lt;font style=&quot;font-size: 20px;&quot;&gt;DataLake&lt;/font&gt;" style="image;sketch=0;aspect=fixed;html=1;points=[];align=center;fontSize=12;image=img/lib/mscae/Data_Lake.svg;labelPosition=center;verticalLabelPosition=middle;verticalAlign=middle;" vertex="1" parent="1">
          <mxGeometry x="104.99999999999994" y="170" width="108.3" height="142.5" as="geometry" />
        </mxCell>
        <mxCell id="aiSzK5rX2R9y6aixbrk_-23" value="" style="edgeStyle=orthogonalEdgeStyle;rounded=0;orthogonalLoop=1;jettySize=auto;html=1;entryX=0.5;entryY=0;entryDx=0;entryDy=0;strokeWidth=2;" edge="1" parent="1" source="aiSzK5rX2R9y6aixbrk_-10" target="aiSzK5rX2R9y6aixbrk_-15">
          <mxGeometry relative="1" as="geometry" />
        </mxCell>
        <mxCell id="aiSzK5rX2R9y6aixbrk_-121" style="edgeStyle=orthogonalEdgeStyle;rounded=0;orthogonalLoop=1;jettySize=auto;html=1;entryX=0;entryY=0.5;entryDx=0;entryDy=0;strokeWidth=2;" edge="1" parent="1" source="aiSzK5rX2R9y6aixbrk_-10" target="aiSzK5rX2R9y6aixbrk_-21">
          <mxGeometry relative="1" as="geometry">
            <Array as="points">
              <mxPoint x="310" y="475" />
              <mxPoint x="310" y="529" />
            </Array>
          </mxGeometry>
        </mxCell>
        <mxCell id="aiSzK5rX2R9y6aixbrk_-10" value="&lt;font style=&quot;font-size: 20px;&quot;&gt;Data.&amp;nbsp; &amp;nbsp;&lt;br&gt;WareHouse&lt;/font&gt;" style="image;sketch=0;aspect=fixed;html=1;points=[];align=right;fontSize=12;image=img/lib/mscae/SQL_DataWarehouse.svg;labelPosition=left;verticalLabelPosition=middle;verticalAlign=middle;" vertex="1" parent="1">
          <mxGeometry x="91.43999999999996" y="410" width="135.42" height="130" as="geometry" />
        </mxCell>
        <mxCell id="aiSzK5rX2R9y6aixbrk_-17" value="" style="group" vertex="1" connectable="0" parent="1">
          <mxGeometry x="34.14999999999995" y="640" width="250" height="110" as="geometry" />
        </mxCell>
        <mxCell id="aiSzK5rX2R9y6aixbrk_-15" value="&lt;font style=&quot;font-size: 20px;&quot;&gt;Data Analysis&lt;br&gt;Data Mining&lt;br&gt;&lt;/font&gt;" style="rounded=1;whiteSpace=wrap;html=1;labelPosition=center;verticalLabelPosition=bottom;align=center;verticalAlign=top;" vertex="1" parent="aiSzK5rX2R9y6aixbrk_-17">
          <mxGeometry width="250" height="110" as="geometry" />
        </mxCell>
        <mxCell id="aiSzK5rX2R9y6aixbrk_-13" value="" style="group" vertex="1" connectable="0" parent="aiSzK5rX2R9y6aixbrk_-17">
          <mxGeometry x="36.5" y="16.5" width="177" height="77" as="geometry" />
        </mxCell>
        <mxCell id="aiSzK5rX2R9y6aixbrk_-9" value="" style="shape=image;html=1;verticalAlign=top;verticalLabelPosition=bottom;labelBackgroundColor=#ffffff;imageAspect=0;aspect=fixed;image=https://cdn4.iconfinder.com/data/icons/success-filloutline/64/chart-analysis-analytics-data_analytics-pie_1-128.png;labelPosition=center;align=center;" vertex="1" parent="aiSzK5rX2R9y6aixbrk_-13">
          <mxGeometry y="5.5" width="71.5" height="71.5" as="geometry" />
        </mxCell>
        <mxCell id="aiSzK5rX2R9y6aixbrk_-12" value="" style="shape=image;html=1;verticalAlign=top;verticalLabelPosition=bottom;labelBackgroundColor=#ffffff;imageAspect=0;aspect=fixed;image=https://cdn0.iconfinder.com/data/icons/business-startup-10/50/22-128.png" vertex="1" parent="aiSzK5rX2R9y6aixbrk_-13">
          <mxGeometry x="100" width="77" height="77" as="geometry" />
        </mxCell>
        <mxCell id="aiSzK5rX2R9y6aixbrk_-42" value="" style="edgeStyle=orthogonalEdgeStyle;rounded=0;orthogonalLoop=1;jettySize=auto;html=1;strokeWidth=2;" edge="1" parent="1" source="aiSzK5rX2R9y6aixbrk_-21" target="aiSzK5rX2R9y6aixbrk_-30">
          <mxGeometry relative="1" as="geometry" />
        </mxCell>
        <mxCell id="aiSzK5rX2R9y6aixbrk_-106" style="edgeStyle=orthogonalEdgeStyle;rounded=0;orthogonalLoop=1;jettySize=auto;html=1;exitX=0;exitY=0.7;exitDx=0;exitDy=0;entryX=0.5;entryY=1;entryDx=0;entryDy=0;strokeWidth=2;" edge="1" parent="1" source="aiSzK5rX2R9y6aixbrk_-21" target="aiSzK5rX2R9y6aixbrk_-70">
          <mxGeometry relative="1" as="geometry">
            <Array as="points">
              <mxPoint x="359" y="590" />
              <mxPoint x="359" y="1166" />
              <mxPoint x="1815" y="1166" />
            </Array>
          </mxGeometry>
        </mxCell>
        <mxCell id="aiSzK5rX2R9y6aixbrk_-21" value="&lt;font style=&quot;font-size: 20px;&quot;&gt;Feature&lt;br&gt;Store&lt;/font&gt;" style="shape=cylinder;whiteSpace=wrap;html=1;boundedLbl=1;backgroundOutline=1;fillColor=#d5e8d4;strokeColor=#82b366;" vertex="1" parent="1">
          <mxGeometry x="427" y="402" width="146" height="253" as="geometry" />
        </mxCell>
        <mxCell id="aiSzK5rX2R9y6aixbrk_-43" value="" style="edgeStyle=orthogonalEdgeStyle;rounded=0;orthogonalLoop=1;jettySize=auto;html=1;strokeWidth=2;" edge="1" parent="1" source="aiSzK5rX2R9y6aixbrk_-30" target="aiSzK5rX2R9y6aixbrk_-36">
          <mxGeometry relative="1" as="geometry" />
        </mxCell>
        <mxCell id="aiSzK5rX2R9y6aixbrk_-30" value="&lt;font style=&quot;font-size: 18px;&quot;&gt;Data&lt;br&gt;Analysis&lt;/font&gt;" style="whiteSpace=wrap;html=1;aspect=fixed;fillColor=#fff2cc;strokeColor=#d6b656;" vertex="1" parent="1">
          <mxGeometry x="450" y="258.75" width="100" height="100" as="geometry" />
        </mxCell>
        <mxCell id="aiSzK5rX2R9y6aixbrk_-40" value="" style="edgeStyle=orthogonalEdgeStyle;rounded=0;orthogonalLoop=1;jettySize=auto;html=1;strokeColor=#808080;strokeWidth=2;" edge="1" parent="1" source="aiSzK5rX2R9y6aixbrk_-36" target="aiSzK5rX2R9y6aixbrk_-37">
          <mxGeometry relative="1" as="geometry">
            <Array as="points">
              <mxPoint x="710" y="230" />
              <mxPoint x="710" y="230" />
            </Array>
          </mxGeometry>
        </mxCell>
        <mxCell id="aiSzK5rX2R9y6aixbrk_-75" value="" style="edgeStyle=orthogonalEdgeStyle;rounded=0;orthogonalLoop=1;jettySize=auto;html=1;strokeWidth=2;" edge="1" parent="1" source="aiSzK5rX2R9y6aixbrk_-36" target="aiSzK5rX2R9y6aixbrk_-44">
          <mxGeometry relative="1" as="geometry" />
        </mxCell>
        <mxCell id="aiSzK5rX2R9y6aixbrk_-36" value="&lt;font style=&quot;font-size: 18px;&quot;&gt;Orchestrated&lt;br&gt;Experiment&lt;/font&gt;" style="rounded=0;whiteSpace=wrap;html=1;fillColor=#dae8fc;strokeColor=#6c8ebf;" vertex="1" parent="1">
          <mxGeometry x="600" y="263.75" width="310" height="90" as="geometry" />
        </mxCell>
        <mxCell id="aiSzK5rX2R9y6aixbrk_-41" value="" style="edgeStyle=orthogonalEdgeStyle;rounded=0;orthogonalLoop=1;jettySize=auto;html=1;strokeColor=#808080;strokeWidth=2;" edge="1" parent="1" source="aiSzK5rX2R9y6aixbrk_-37" target="aiSzK5rX2R9y6aixbrk_-36">
          <mxGeometry relative="1" as="geometry">
            <Array as="points">
              <mxPoint x="750" y="220" />
              <mxPoint x="750" y="220" />
            </Array>
          </mxGeometry>
        </mxCell>
        <mxCell id="aiSzK5rX2R9y6aixbrk_-37" value="&lt;font style=&quot;font-size: 18px;&quot;&gt;Model&lt;br&gt;Analysis&lt;/font&gt;" style="whiteSpace=wrap;html=1;fillColor=#fff2cc;strokeColor=#d6b656;rounded=0;" vertex="1" parent="1">
          <mxGeometry x="665" y="110" width="130" height="90" as="geometry" />
        </mxCell>
        <mxCell id="aiSzK5rX2R9y6aixbrk_-76" value="" style="edgeStyle=orthogonalEdgeStyle;rounded=0;orthogonalLoop=1;jettySize=auto;html=1;strokeWidth=2;" edge="1" parent="1" source="aiSzK5rX2R9y6aixbrk_-44" target="aiSzK5rX2R9y6aixbrk_-45">
          <mxGeometry relative="1" as="geometry" />
        </mxCell>
        <mxCell id="aiSzK5rX2R9y6aixbrk_-44" value="&lt;font style=&quot;font-size: 18px;&quot;&gt;Source&lt;br&gt;Code&lt;/font&gt;" style="verticalLabelPosition=middle;verticalAlign=middle;html=1;shape=mxgraph.basic.layered_rect;dx=10;outlineConnect=0;whiteSpace=wrap;labelPosition=center;align=center;fillColor=#eeeeee;strokeColor=#36393d;" vertex="1" parent="1">
          <mxGeometry x="960" y="266.25" width="130" height="85" as="geometry" />
        </mxCell>
        <mxCell id="aiSzK5rX2R9y6aixbrk_-77" value="" style="edgeStyle=orthogonalEdgeStyle;rounded=0;orthogonalLoop=1;jettySize=auto;html=1;strokeWidth=2;" edge="1" parent="1" source="aiSzK5rX2R9y6aixbrk_-45" target="aiSzK5rX2R9y6aixbrk_-46">
          <mxGeometry relative="1" as="geometry" />
        </mxCell>
        <mxCell id="aiSzK5rX2R9y6aixbrk_-45" value="&lt;font style=&quot;font-size: 18px;&quot;&gt;Source&lt;br&gt;Repository&lt;/font&gt;" style="shape=cylinder3;whiteSpace=wrap;html=1;boundedLbl=1;backgroundOutline=1;size=15;fillColor=#eeeeee;strokeColor=#FFFFFF;" vertex="1" parent="1">
          <mxGeometry x="1160" y="258.75" width="140" height="100" as="geometry" />
        </mxCell>
        <mxCell id="aiSzK5rX2R9y6aixbrk_-79" value="" style="edgeStyle=orthogonalEdgeStyle;rounded=0;orthogonalLoop=1;jettySize=auto;html=1;curved=0;endArrow=none;endFill=0;strokeWidth=2;" edge="1" parent="1" source="aiSzK5rX2R9y6aixbrk_-46" target="aiSzK5rX2R9y6aixbrk_-47">
          <mxGeometry relative="1" as="geometry" />
        </mxCell>
        <mxCell id="aiSzK5rX2R9y6aixbrk_-46" value="&lt;font style=&quot;font-size: 18px;&quot;&gt;CI: Build, test &amp;amp; package&lt;br&gt;pipeline components&lt;/font&gt;" style="rounded=0;whiteSpace=wrap;html=1;fillColor=#dae8fc;strokeColor=#6c8ebf;" vertex="1" parent="1">
          <mxGeometry x="1380" y="263.75" width="310" height="90" as="geometry" />
        </mxCell>
        <mxCell id="aiSzK5rX2R9y6aixbrk_-80" style="edgeStyle=orthogonalEdgeStyle;rounded=0;orthogonalLoop=1;jettySize=auto;html=1;exitX=0.5;exitY=0.88;exitDx=0;exitDy=0;exitPerimeter=0;entryX=0.5;entryY=0;entryDx=0;entryDy=0;strokeWidth=2;" edge="1" parent="1" source="aiSzK5rX2R9y6aixbrk_-47" target="aiSzK5rX2R9y6aixbrk_-50">
          <mxGeometry relative="1" as="geometry" />
        </mxCell>
        <mxCell id="aiSzK5rX2R9y6aixbrk_-47" value="&lt;font style=&quot;font-size: 18px;&quot;&gt;Packages&lt;/font&gt;" style="strokeWidth=2;html=1;shape=mxgraph.flowchart.multi-document;whiteSpace=wrap;fillColor=#e1d5e7;strokeColor=#9673a6;" vertex="1" parent="1">
          <mxGeometry x="1740" y="257.5" width="150" height="102.5" as="geometry" />
        </mxCell>
        <mxCell id="aiSzK5rX2R9y6aixbrk_-118" style="edgeStyle=orthogonalEdgeStyle;rounded=0;orthogonalLoop=1;jettySize=auto;html=1;exitX=0;exitY=0.75;exitDx=0;exitDy=0;strokeWidth=2;strokeColor=#808080;" edge="1" parent="1" source="aiSzK5rX2R9y6aixbrk_-50" target="aiSzK5rX2R9y6aixbrk_-54">
          <mxGeometry relative="1" as="geometry" />
        </mxCell>
        <mxCell id="aiSzK5rX2R9y6aixbrk_-145" style="edgeStyle=orthogonalEdgeStyle;rounded=0;orthogonalLoop=1;jettySize=auto;html=1;exitX=1;exitY=0.5;exitDx=0;exitDy=0;entryX=0.5;entryY=0;entryDx=0;entryDy=0;dashed=1;dashPattern=1 2;startArrow=open;startFill=0;endArrow=open;endFill=0;strokeWidth=2;strokeColor=#999999;" edge="1" parent="1" source="aiSzK5rX2R9y6aixbrk_-50" target="aiSzK5rX2R9y6aixbrk_-142">
          <mxGeometry relative="1" as="geometry" />
        </mxCell>
        <mxCell id="aiSzK5rX2R9y6aixbrk_-50" value="&lt;font style=&quot;font-size: 18px;&quot;&gt;CD: Pipeline&lt;br style=&quot;border-color: var(--border-color);&quot;&gt;deployment&lt;/font&gt;" style="rounded=0;whiteSpace=wrap;html=1;fillColor=#dae8fc;strokeColor=#6c8ebf;" vertex="1" parent="1">
          <mxGeometry x="1741.5" y="432" width="147" height="70" as="geometry" />
        </mxCell>
        <mxCell id="aiSzK5rX2R9y6aixbrk_-86" value="" style="edgeStyle=orthogonalEdgeStyle;rounded=0;orthogonalLoop=1;jettySize=auto;html=1;strokeWidth=2;dashed=1;strokeColor=#808080;dashPattern=1 1;" edge="1" parent="1" source="aiSzK5rX2R9y6aixbrk_-52" target="aiSzK5rX2R9y6aixbrk_-55">
          <mxGeometry relative="1" as="geometry" />
        </mxCell>
        <mxCell id="aiSzK5rX2R9y6aixbrk_-124" style="edgeStyle=orthogonalEdgeStyle;rounded=0;orthogonalLoop=1;jettySize=auto;html=1;endArrow=none;endFill=0;dashed=1;dashPattern=1 1;strokeWidth=2;strokeColor=#808080;" edge="1" parent="1" source="aiSzK5rX2R9y6aixbrk_-52" target="aiSzK5rX2R9y6aixbrk_-53">
          <mxGeometry relative="1" as="geometry" />
        </mxCell>
        <mxCell id="aiSzK5rX2R9y6aixbrk_-52" value="&lt;font style=&quot;font-size: 18px;&quot;&gt;Trained&lt;br&gt;model&lt;/font&gt;" style="shape=document;whiteSpace=wrap;html=1;boundedLbl=1;fillColor=#e1d5e7;strokeColor=#9673a6;" vertex="1" parent="1">
          <mxGeometry x="1755" y="538" width="120" height="88" as="geometry" />
        </mxCell>
        <mxCell id="aiSzK5rX2R9y6aixbrk_-53" value="&lt;font style=&quot;font-size: 18px;&quot;&gt;Model&lt;br&gt;Registry&lt;/font&gt;" style="shape=cylinder3;whiteSpace=wrap;html=1;boundedLbl=1;backgroundOutline=1;size=15;fillColor=#eeeeee;strokeColor=#FFFFFF;" vertex="1" parent="1">
          <mxGeometry x="1499" y="533" width="130" height="98" as="geometry" />
        </mxCell>
        <mxCell id="aiSzK5rX2R9y6aixbrk_-88" style="edgeStyle=orthogonalEdgeStyle;rounded=0;orthogonalLoop=1;jettySize=auto;html=1;exitX=0.5;exitY=1;exitDx=0;exitDy=0;strokeWidth=2;" edge="1" parent="1" target="aiSzK5rX2R9y6aixbrk_-70">
          <mxGeometry relative="1" as="geometry">
            <mxPoint x="1815" y="841" as="sourcePoint" />
          </mxGeometry>
        </mxCell>
        <mxCell id="aiSzK5rX2R9y6aixbrk_-55" value="&lt;font style=&quot;font-size: 18px;&quot;&gt;CD: Model&lt;br&gt;Serving&lt;br&gt;&lt;/font&gt;" style="rounded=0;whiteSpace=wrap;html=1;fillColor=#dae8fc;strokeColor=#6c8ebf;" vertex="1" parent="1">
          <mxGeometry x="1750" y="667" width="130" height="170" as="geometry" />
        </mxCell>
        <mxCell id="aiSzK5rX2R9y6aixbrk_-67" value="" style="group" vertex="1" connectable="0" parent="1">
          <mxGeometry x="610" y="657" width="1071" height="180" as="geometry" />
        </mxCell>
        <mxCell id="aiSzK5rX2R9y6aixbrk_-54" value="" style="rounded=0;whiteSpace=wrap;html=1;fillColor=#dae8fc;strokeColor=#6c8ebf;labelPosition=left;verticalLabelPosition=top;align=right;verticalAlign=bottom;" vertex="1" parent="aiSzK5rX2R9y6aixbrk_-67">
          <mxGeometry y="9" width="1050" height="180" as="geometry" />
        </mxCell>
        <mxCell id="aiSzK5rX2R9y6aixbrk_-94" style="edgeStyle=orthogonalEdgeStyle;rounded=0;orthogonalLoop=1;jettySize=auto;html=1;exitX=1;exitY=0.5;exitDx=0;exitDy=0;entryX=0;entryY=0.5;entryDx=0;entryDy=0;strokeWidth=2;strokeColor=#808080;" edge="1" parent="aiSzK5rX2R9y6aixbrk_-67" source="aiSzK5rX2R9y6aixbrk_-56" target="aiSzK5rX2R9y6aixbrk_-57">
          <mxGeometry relative="1" as="geometry" />
        </mxCell>
        <mxCell id="aiSzK5rX2R9y6aixbrk_-56" value="&lt;font style=&quot;font-size: 18px;&quot;&gt;Data&lt;br&gt;Extraction&lt;/font&gt;" style="rounded=0;whiteSpace=wrap;html=1;strokeColor=#808080;strokeWidth=2;" vertex="1" parent="aiSzK5rX2R9y6aixbrk_-67">
          <mxGeometry x="20" y="79" width="150" height="80" as="geometry" />
        </mxCell>
        <mxCell id="aiSzK5rX2R9y6aixbrk_-95" style="edgeStyle=orthogonalEdgeStyle;rounded=0;orthogonalLoop=1;jettySize=auto;html=1;exitX=1;exitY=0.5;exitDx=0;exitDy=0;entryX=0;entryY=0.5;entryDx=0;entryDy=0;strokeWidth=2;strokeColor=#808080;" edge="1" parent="aiSzK5rX2R9y6aixbrk_-67" source="aiSzK5rX2R9y6aixbrk_-57" target="aiSzK5rX2R9y6aixbrk_-60">
          <mxGeometry relative="1" as="geometry" />
        </mxCell>
        <mxCell id="aiSzK5rX2R9y6aixbrk_-57" value="&lt;font style=&quot;font-size: 18px;&quot;&gt;Data&lt;br&gt;Validation&lt;/font&gt;" style="rounded=0;whiteSpace=wrap;html=1;strokeColor=#808080;strokeWidth=2;" vertex="1" parent="aiSzK5rX2R9y6aixbrk_-67">
          <mxGeometry x="192" y="79" width="150" height="80" as="geometry" />
        </mxCell>
        <mxCell id="aiSzK5rX2R9y6aixbrk_-97" value="" style="edgeStyle=orthogonalEdgeStyle;rounded=0;orthogonalLoop=1;jettySize=auto;html=1;strokeWidth=2;strokeColor=#808080;" edge="1" parent="aiSzK5rX2R9y6aixbrk_-67" source="aiSzK5rX2R9y6aixbrk_-60" target="aiSzK5rX2R9y6aixbrk_-61">
          <mxGeometry relative="1" as="geometry" />
        </mxCell>
        <mxCell id="aiSzK5rX2R9y6aixbrk_-60" value="&lt;font style=&quot;font-size: 18px;&quot;&gt;Data&lt;br&gt;Preparation&lt;/font&gt;" style="rounded=0;whiteSpace=wrap;html=1;strokeColor=#808080;strokeWidth=2;" vertex="1" parent="aiSzK5rX2R9y6aixbrk_-67">
          <mxGeometry x="364" y="79" width="150" height="80" as="geometry" />
        </mxCell>
        <mxCell id="aiSzK5rX2R9y6aixbrk_-98" value="" style="edgeStyle=orthogonalEdgeStyle;rounded=0;orthogonalLoop=1;jettySize=auto;html=1;strokeWidth=2;strokeColor=#808080;" edge="1" parent="aiSzK5rX2R9y6aixbrk_-67" source="aiSzK5rX2R9y6aixbrk_-61" target="aiSzK5rX2R9y6aixbrk_-64">
          <mxGeometry relative="1" as="geometry" />
        </mxCell>
        <mxCell id="aiSzK5rX2R9y6aixbrk_-61" value="&lt;font style=&quot;font-size: 18px;&quot;&gt;Model&lt;br&gt;Training&lt;/font&gt;" style="rounded=0;whiteSpace=wrap;html=1;strokeColor=#808080;strokeWidth=2;" vertex="1" parent="aiSzK5rX2R9y6aixbrk_-67">
          <mxGeometry x="535" y="79" width="150" height="80" as="geometry" />
        </mxCell>
        <mxCell id="aiSzK5rX2R9y6aixbrk_-99" value="" style="edgeStyle=orthogonalEdgeStyle;rounded=0;orthogonalLoop=1;jettySize=auto;html=1;strokeWidth=2;strokeColor=#808080;" edge="1" parent="aiSzK5rX2R9y6aixbrk_-67" source="aiSzK5rX2R9y6aixbrk_-64" target="aiSzK5rX2R9y6aixbrk_-65">
          <mxGeometry relative="1" as="geometry" />
        </mxCell>
        <mxCell id="aiSzK5rX2R9y6aixbrk_-64" value="&lt;font style=&quot;font-size: 18px;&quot;&gt;Model&lt;br&gt;Evaluation&lt;/font&gt;" style="rounded=0;whiteSpace=wrap;html=1;strokeColor=#808080;strokeWidth=2;" vertex="1" parent="aiSzK5rX2R9y6aixbrk_-67">
          <mxGeometry x="707" y="79" width="150" height="80" as="geometry" />
        </mxCell>
        <mxCell id="aiSzK5rX2R9y6aixbrk_-65" value="&lt;font style=&quot;font-size: 18px;&quot;&gt;Model&lt;br&gt;Validation&lt;span style=&quot;white-space: pre;&quot;&gt;&#x9;&lt;/span&gt;&lt;/font&gt;" style="rounded=0;whiteSpace=wrap;html=1;strokeColor=#808080;strokeWidth=2;" vertex="1" parent="aiSzK5rX2R9y6aixbrk_-67">
          <mxGeometry x="879" y="79" width="150" height="80" as="geometry" />
        </mxCell>
        <mxCell id="aiSzK5rX2R9y6aixbrk_-66" value="&lt;font style=&quot;font-size: 20px;&quot;&gt;Automated pipeline&lt;/font&gt;" style="text;html=1;strokeColor=none;fillColor=none;align=center;verticalAlign=middle;whiteSpace=wrap;rounded=0;fontColor=#666666;" vertex="1" parent="aiSzK5rX2R9y6aixbrk_-67">
          <mxGeometry y="10" width="220" height="30" as="geometry" />
        </mxCell>
        <mxCell id="aiSzK5rX2R9y6aixbrk_-130" value="4&lt;span style=&quot;white-space: pre;&quot;&gt;&#x9;&lt;/span&gt;" style="verticalLabelPosition=middle;verticalAlign=middle;html=1;shape=mxgraph.flowchart.on-page_reference;fontSize=18;labelPosition=center;align=center;fillColor=#fff2cc;strokeColor=#d6b656;" vertex="1" parent="aiSzK5rX2R9y6aixbrk_-67">
          <mxGeometry x="1029" y="-14" width="42" height="42" as="geometry" />
        </mxCell>
        <mxCell id="aiSzK5rX2R9y6aixbrk_-68" value="&lt;font style=&quot;font-size: 18px;&quot;&gt;ML metadata store&lt;/font&gt;" style="shape=cylinder3;whiteSpace=wrap;html=1;boundedLbl=1;backgroundOutline=1;size=15;fillColor=#eeeeee;strokeColor=#FFFFFF;" vertex="1" parent="1">
          <mxGeometry x="860" y="905" width="550" height="90" as="geometry" />
        </mxCell>
        <mxCell id="aiSzK5rX2R9y6aixbrk_-90" style="edgeStyle=orthogonalEdgeStyle;rounded=0;orthogonalLoop=1;jettySize=auto;html=1;exitX=0;exitY=0.5;exitDx=0;exitDy=0;entryX=0.5;entryY=1;entryDx=0;entryDy=0;dashed=1;strokeWidth=2;strokeColor=#808080;dashPattern=1 1;" edge="1" parent="1" source="aiSzK5rX2R9y6aixbrk_-69" target="aiSzK5rX2R9y6aixbrk_-71">
          <mxGeometry relative="1" as="geometry" />
        </mxCell>
        <mxCell id="aiSzK5rX2R9y6aixbrk_-91" style="edgeStyle=orthogonalEdgeStyle;rounded=0;orthogonalLoop=1;jettySize=auto;html=1;exitX=0;exitY=0.5;exitDx=0;exitDy=0;entryX=0;entryY=0.5;entryDx=0;entryDy=0;dashed=1;strokeWidth=2;strokeColor=#808080;dashPattern=1 1;" edge="1" parent="1" source="aiSzK5rX2R9y6aixbrk_-69" target="aiSzK5rX2R9y6aixbrk_-30">
          <mxGeometry relative="1" as="geometry">
            <Array as="points">
              <mxPoint x="405" y="1085" />
              <mxPoint x="405" y="309" />
            </Array>
          </mxGeometry>
        </mxCell>
        <mxCell id="aiSzK5rX2R9y6aixbrk_-69" value="&lt;font style=&quot;font-size: 18px;&quot;&gt;Performance&lt;br&gt;Monitoring&lt;/font&gt;" style="rounded=0;whiteSpace=wrap;html=1;fillColor=#dae8fc;strokeColor=#6c8ebf;" vertex="1" parent="1">
          <mxGeometry x="1030" y="1040" width="210" height="90" as="geometry" />
        </mxCell>
        <mxCell id="aiSzK5rX2R9y6aixbrk_-89" style="edgeStyle=orthogonalEdgeStyle;rounded=0;orthogonalLoop=1;jettySize=auto;html=1;exitX=0;exitY=0.5;exitDx=0;exitDy=0;entryX=1;entryY=0.5;entryDx=0;entryDy=0;dashed=1;strokeWidth=2;strokeColor=#808080;dashPattern=1 1;" edge="1" parent="1" source="aiSzK5rX2R9y6aixbrk_-70" target="aiSzK5rX2R9y6aixbrk_-69">
          <mxGeometry relative="1" as="geometry" />
        </mxCell>
        <mxCell id="aiSzK5rX2R9y6aixbrk_-146" style="edgeStyle=orthogonalEdgeStyle;rounded=0;orthogonalLoop=1;jettySize=auto;html=1;exitX=1;exitY=0.5;exitDx=0;exitDy=0;dashed=1;dashPattern=1 2;startArrow=open;startFill=0;endArrow=open;endFill=0;strokeWidth=2;strokeColor=#999999;" edge="1" parent="1" source="aiSzK5rX2R9y6aixbrk_-70" target="aiSzK5rX2R9y6aixbrk_-142">
          <mxGeometry relative="1" as="geometry" />
        </mxCell>
        <mxCell id="aiSzK5rX2R9y6aixbrk_-70" value="&lt;font style=&quot;font-size: 18px;&quot;&gt;Prediction&lt;br&gt;Service&lt;/font&gt;" style="rounded=1;whiteSpace=wrap;html=1;fillColor=#fad9d5;strokeColor=#ae4132;" vertex="1" parent="1">
          <mxGeometry x="1755" y="1037.5" width="120" height="95" as="geometry" />
        </mxCell>
        <mxCell id="aiSzK5rX2R9y6aixbrk_-92" style="edgeStyle=orthogonalEdgeStyle;rounded=0;orthogonalLoop=1;jettySize=auto;html=1;exitX=0.5;exitY=0;exitDx=0;exitDy=0;entryX=0;entryY=0.75;entryDx=0;entryDy=0;strokeWidth=2;" edge="1" parent="1" source="aiSzK5rX2R9y6aixbrk_-71" target="aiSzK5rX2R9y6aixbrk_-54">
          <mxGeometry relative="1" as="geometry" />
        </mxCell>
        <mxCell id="aiSzK5rX2R9y6aixbrk_-71" value="&lt;font style=&quot;font-size: 18px;&quot;&gt;Trigger&lt;/font&gt;" style="ellipse;whiteSpace=wrap;html=1;fillColor=#d5e8d4;strokeColor=#82b366;" vertex="1" parent="1">
          <mxGeometry x="440" y="949.5" width="120" height="80" as="geometry" />
        </mxCell>
        <mxCell id="aiSzK5rX2R9y6aixbrk_-82" style="edgeStyle=orthogonalEdgeStyle;rounded=0;orthogonalLoop=1;jettySize=auto;html=1;exitX=0.5;exitY=0;exitDx=0;exitDy=0;entryX=0.5;entryY=1;entryDx=0;entryDy=0;entryPerimeter=0;dashed=1;strokeWidth=2;strokeColor=#808080;dashPattern=1 1;" edge="1" parent="1" source="aiSzK5rX2R9y6aixbrk_-65" target="aiSzK5rX2R9y6aixbrk_-53">
          <mxGeometry relative="1" as="geometry" />
        </mxCell>
        <mxCell id="aiSzK5rX2R9y6aixbrk_-87" value="" style="edgeStyle=orthogonalEdgeStyle;rounded=0;orthogonalLoop=1;jettySize=auto;html=1;strokeWidth=2;" edge="1" parent="1" source="aiSzK5rX2R9y6aixbrk_-54">
          <mxGeometry relative="1" as="geometry">
            <mxPoint x="1750" y="756" as="targetPoint" />
          </mxGeometry>
        </mxCell>
        <mxCell id="aiSzK5rX2R9y6aixbrk_-108" value="" style="edgeStyle=orthogonalEdgeStyle;rounded=0;orthogonalLoop=1;jettySize=auto;html=1;dashed=1;endArrow=open;endFill=0;strokeWidth=2;strokeColor=#808080;startArrow=open;startFill=0;" edge="1" parent="1" source="aiSzK5rX2R9y6aixbrk_-54" target="aiSzK5rX2R9y6aixbrk_-68">
          <mxGeometry relative="1" as="geometry" />
        </mxCell>
        <mxCell id="aiSzK5rX2R9y6aixbrk_-110" style="edgeStyle=orthogonalEdgeStyle;rounded=0;orthogonalLoop=1;jettySize=auto;html=1;entryX=0.856;entryY=-0.013;entryDx=0;entryDy=0;entryPerimeter=0;strokeWidth=2;" edge="1" parent="1" source="aiSzK5rX2R9y6aixbrk_-3" target="aiSzK5rX2R9y6aixbrk_-4">
          <mxGeometry relative="1" as="geometry">
            <Array as="points">
              <mxPoint x="343" y="97" />
              <mxPoint x="198" y="97" />
            </Array>
          </mxGeometry>
        </mxCell>
        <mxCell id="aiSzK5rX2R9y6aixbrk_-112" style="edgeStyle=orthogonalEdgeStyle;rounded=0;orthogonalLoop=1;jettySize=auto;html=1;entryX=0.208;entryY=0;entryDx=0;entryDy=0;entryPerimeter=0;strokeWidth=2;" edge="1" parent="1" source="aiSzK5rX2R9y6aixbrk_-1" target="aiSzK5rX2R9y6aixbrk_-4">
          <mxGeometry relative="1" as="geometry">
            <Array as="points">
              <mxPoint x="-10" y="95" />
              <mxPoint x="128" y="95" />
            </Array>
          </mxGeometry>
        </mxCell>
        <mxCell id="aiSzK5rX2R9y6aixbrk_-117" style="edgeStyle=orthogonalEdgeStyle;rounded=0;orthogonalLoop=1;jettySize=auto;html=1;exitX=0.5;exitY=1;exitDx=0;exitDy=0;entryX=0;entryY=0.25;entryDx=0;entryDy=0;strokeWidth=2;" edge="1" parent="1" source="aiSzK5rX2R9y6aixbrk_-21" target="aiSzK5rX2R9y6aixbrk_-56">
          <mxGeometry relative="1" as="geometry" />
        </mxCell>
        <mxCell id="aiSzK5rX2R9y6aixbrk_-119" style="edgeStyle=orthogonalEdgeStyle;rounded=0;orthogonalLoop=1;jettySize=auto;html=1;exitX=0;exitY=0.25;exitDx=0;exitDy=0;entryX=1.007;entryY=0.19;entryDx=0;entryDy=0;entryPerimeter=0;endArrow=none;endFill=0;dashed=1;strokeWidth=2;strokeColor=#808080;" edge="1" parent="1" source="aiSzK5rX2R9y6aixbrk_-50" target="aiSzK5rX2R9y6aixbrk_-21">
          <mxGeometry relative="1" as="geometry" />
        </mxCell>
        <mxCell id="aiSzK5rX2R9y6aixbrk_-120" style="edgeStyle=orthogonalEdgeStyle;rounded=0;orthogonalLoop=1;jettySize=auto;html=1;exitX=1;exitY=0.5;exitDx=0;exitDy=0;entryX=0;entryY=0.5;entryDx=0;entryDy=0;strokeWidth=2;" edge="1" parent="1" source="aiSzK5rX2R9y6aixbrk_-15" target="aiSzK5rX2R9y6aixbrk_-21">
          <mxGeometry relative="1" as="geometry">
            <Array as="points">
              <mxPoint x="310" y="695" />
              <mxPoint x="310" y="529" />
            </Array>
          </mxGeometry>
        </mxCell>
        <mxCell id="aiSzK5rX2R9y6aixbrk_-122" value="&lt;font style=&quot;font-size: 20px;&quot;&gt;experimentation / development / test&lt;/font&gt;" style="text;html=1;strokeColor=none;fillColor=none;align=center;verticalAlign=middle;whiteSpace=wrap;rounded=0;" vertex="1" parent="1">
          <mxGeometry x="572" y="409" width="362" height="30" as="geometry" />
        </mxCell>
        <mxCell id="aiSzK5rX2R9y6aixbrk_-123" value="&lt;font style=&quot;font-size: 20px;&quot;&gt;staging/ preproduction / production&lt;/font&gt;" style="text;html=1;strokeColor=none;fillColor=none;align=center;verticalAlign=middle;whiteSpace=wrap;rounded=0;" vertex="1" parent="1">
          <mxGeometry x="590" y="459" width="318" height="30" as="geometry" />
        </mxCell>
        <mxCell id="aiSzK5rX2R9y6aixbrk_-125" value="1" style="verticalLabelPosition=middle;verticalAlign=middle;html=1;shape=mxgraph.flowchart.on-page_reference;fontSize=18;labelPosition=center;align=center;fillColor=#fff2cc;strokeColor=#d6b656;" vertex="1" parent="1">
          <mxGeometry x="886" y="248" width="42" height="42" as="geometry" />
        </mxCell>
        <mxCell id="aiSzK5rX2R9y6aixbrk_-126" value="2" style="verticalLabelPosition=middle;verticalAlign=middle;html=1;shape=mxgraph.flowchart.on-page_reference;fontSize=18;labelPosition=center;align=center;fillColor=#fff2cc;strokeColor=#d6b656;" vertex="1" parent="1">
          <mxGeometry x="1664" y="248" width="42" height="42" as="geometry" />
        </mxCell>
        <mxCell id="aiSzK5rX2R9y6aixbrk_-129" value="3" style="verticalLabelPosition=middle;verticalAlign=middle;html=1;shape=mxgraph.flowchart.on-page_reference;fontSize=18;labelPosition=center;align=center;fillColor=#fff2cc;strokeColor=#d6b656;" vertex="1" parent="1">
          <mxGeometry x="1868" y="412" width="42" height="42" as="geometry" />
        </mxCell>
        <mxCell id="aiSzK5rX2R9y6aixbrk_-131" value="5&lt;span style=&quot;white-space: pre;&quot;&gt;&#x9;&lt;/span&gt;" style="verticalLabelPosition=middle;verticalAlign=middle;html=1;shape=mxgraph.flowchart.on-page_reference;fontSize=18;labelPosition=center;align=center;fillColor=#fff2cc;strokeColor=#d6b656;" vertex="1" parent="1">
          <mxGeometry x="1861" y="645" width="42" height="42" as="geometry" />
        </mxCell>
        <mxCell id="aiSzK5rX2R9y6aixbrk_-132" value="6" style="verticalLabelPosition=middle;verticalAlign=middle;html=1;shape=mxgraph.flowchart.on-page_reference;fontSize=18;labelPosition=center;align=center;fillColor=#fff2cc;strokeColor=#d6b656;" vertex="1" parent="1">
          <mxGeometry x="1217" y="1018" width="42" height="42" as="geometry" />
        </mxCell>
        <mxCell id="aiSzK5rX2R9y6aixbrk_-134" value="&lt;font style=&quot;font-size: 25px;&quot;&gt;Process Data&lt;/font&gt;" style="shape=step;perimeter=stepPerimeter;whiteSpace=wrap;html=1;fixedSize=1;fillColor=#d5e8d4;strokeColor=#82b366;" vertex="1" parent="1">
          <mxGeometry x="-57" y="-206" width="592" height="80" as="geometry" />
        </mxCell>
        <mxCell id="aiSzK5rX2R9y6aixbrk_-136" value="&lt;font style=&quot;font-size: 25px;&quot;&gt;Model Development&lt;/font&gt;" style="shape=step;perimeter=stepPerimeter;whiteSpace=wrap;html=1;fixedSize=1;fillColor=#dae8fc;strokeColor=#6c8ebf;" vertex="1" parent="1">
          <mxGeometry x="534" y="-206" width="907" height="80" as="geometry" />
        </mxCell>
        <mxCell id="aiSzK5rX2R9y6aixbrk_-138" value="&lt;font style=&quot;font-size: 25px;&quot;&gt;Deployment&lt;/font&gt;" style="shape=step;perimeter=stepPerimeter;whiteSpace=wrap;html=1;fixedSize=1;fillColor=#f8cecc;strokeColor=#b85450;" vertex="1" parent="1">
          <mxGeometry x="1444" y="-206" width="481" height="80" as="geometry" />
        </mxCell>
        <mxCell id="aiSzK5rX2R9y6aixbrk_-140" value="&lt;font style=&quot;font-size: 25px;&quot;&gt;Monitoring&lt;/font&gt;" style="shape=step;perimeter=stepPerimeter;whiteSpace=wrap;html=1;fixedSize=1;fillColor=#1ba1e2;fontColor=#ffffff;strokeColor=#006EAF;" vertex="1" parent="1">
          <mxGeometry x="1924" y="-206" width="298" height="80" as="geometry" />
        </mxCell>
        <mxCell id="aiSzK5rX2R9y6aixbrk_-144" style="edgeStyle=orthogonalEdgeStyle;rounded=0;orthogonalLoop=1;jettySize=auto;html=1;entryX=0.5;entryY=0;entryDx=0;entryDy=0;strokeWidth=2;strokeColor=#999999;dashed=1;dashPattern=1 2;startArrow=open;startFill=0;endArrow=open;endFill=0;" edge="1" parent="1" source="aiSzK5rX2R9y6aixbrk_-142" target="aiSzK5rX2R9y6aixbrk_-46">
          <mxGeometry relative="1" as="geometry">
            <Array as="points">
              <mxPoint x="2109" y="100" />
              <mxPoint x="1535" y="100" />
            </Array>
          </mxGeometry>
        </mxCell>
        <mxCell id="aiSzK5rX2R9y6aixbrk_-142" value="&lt;br&gt;&lt;font style=&quot;font-size: 25px;&quot;&gt;Monitoring&lt;/font&gt;" style="sketch=0;html=1;verticalAlign=top;labelPosition=center;verticalLabelPosition=bottom;align=center;spacingTop=-6;fontSize=11;fontStyle=1;fontColor=#999999;shape=image;aspect=fixed;imageAspect=0;image=data:image/svg+xml,PHN2ZyB4bWxucz0iaHR0cDovL3d3dy53My5vcmcvMjAwMC9zdmciIHhtbG5zOnY9Imh0dHBzOi8vdmVjdGEuaW8vbmFubyIgd2lkdGg9IjIwIiBoZWlnaHQ9IjEzLjUyOTk5OTczMjk3MTE5MSIgdmlld0JveD0iLTIuOTMyMDk3ODk3ODEyMDE0ZS05IC01LjI1ODAxNTA0MTgzNzk1NmUtMTUgMjAgMTMuNTI5OTk5NzMyOTcxMTkxIj4mI3hhOwk8c3R5bGUgdHlwZT0idGV4dC9jc3MiPiYjeGE7CS5zdDB7ZmlsbDojNDI4NWY0O30mI3hhOwkuc3Qxe2ZpbGw6IzY2OWRmNjt9JiN4YTsJPC9zdHlsZT4mI3hhOwk8cGF0aCBjbGFzcz0ic3QxIiBkPSJNOC44MyAxMC41OGgyLjMzdjIuNjRIOC44M3oiLz4mI3hhOwk8cGF0aCBjbGFzcz0ic3QwIiBkPSJNMTYuNDggOC42MWEuNTYuNTYgMCAwIDEtLjQtLjE3TDEyIDQuMjEgOS4yNiA3LjFhLjU3LjU3IDAgMCAxLS43Ni4wNUw2LjQyIDUuNDdsLTIuMiAyLjkyYS41Ni41NiAwIDAgMS0uNDUuMjJIMHYxLjcxYS43NS43NSAwIDAgMCAuNzQuNzVoMTguNTJhLjc1Ljc1IDAgMCAwIC43NC0uNzVWOC42MXoiLz4mI3hhOwk8cGF0aCBjbGFzcz0ic3QxIiBkPSJNMy41IDcuNWwyLjM4LTMuMTZhLjU1LjU1IDAgMCAxIC4zNy0uMjIuNjMuNjMgMCAwIDEgLjQyLjEybDIuMTIgMS43MiAyLjgtMi45NGEuNTQuNTQgMCAwIDEgLjQtLjE3aDBhLjU0LjU0IDAgMCAxIC40LjE3bDQuMzMgNC40OEgyMFYuNzRhLjc0Ljc0IDAgMCAwLS43NC0uNzRILjc0QS43NC43NCAwIDAgMCAwIC43NHY2LjgxeiIvPiYjeGE7CTxyZWN0IGNsYXNzPSJzdDAiIHg9IjYuNjciIHk9IjEyLjkyIiB3aWR0aD0iNi42NyIgaGVpZ2h0PSIuNjEiIHJ4PSIuMyIvPiYjeGE7PC9zdmc+;" vertex="1" parent="1">
          <mxGeometry x="1995" y="667" width="227.38" height="157" as="geometry" />
        </mxCell>
      </root>
    </mxGraphModel>
  </diagram>
  <diagram id="kgpKYQtTHZ0yAKxKKP6v" name="Page-1">
    <mxGraphModel dx="954" dy="496" grid="1" gridSize="10" guides="1" tooltips="1" connect="1" arrows="1" fold="1" page="1" pageScale="1" pageWidth="850" pageHeight="1100" math="0" shadow="0">
      <root>
        <mxCell id="0" />
        <mxCell id="1" parent="0" />
        <mxCell id="3nuBFxr9cyL0pnOWT2aG-1" value="PERK UP WITH A LATTE" style="shape=table;childLayout=tableLayout;startSize=40;collapsible=0;recursiveResize=0;expand=0;fillColor=none;fontStyle=1" parent="1" vertex="1">
          <mxGeometry x="100" y="70" width="670" height="300" as="geometry" />
        </mxCell>
        <mxCell id="3nuBFxr9cyL0pnOWT2aG-2" value="" style="edgeStyle=orthogonalEdgeStyle;rounded=0;orthogonalLoop=1;jettySize=auto;html=1;" parent="3nuBFxr9cyL0pnOWT2aG-1" source="3nuBFxr9cyL0pnOWT2aG-7" target="3nuBFxr9cyL0pnOWT2aG-17" edge="1">
          <mxGeometry relative="1" as="geometry" />
        </mxCell>
        <mxCell id="3nuBFxr9cyL0pnOWT2aG-3" value="Customer" style="shape=tableRow;horizontal=0;swimlaneHead=0;swimlaneBody=0;top=0;left=0;bottom=0;right=0;fillColor=none;points=[[0,0.5],[1,0.5]];portConstraint=eastwest;startSize=40;collapsible=0;recursiveResize=0;expand=0;fontStyle=1;" parent="3nuBFxr9cyL0pnOWT2aG-1" vertex="1">
          <mxGeometry y="40" width="670" height="180" as="geometry" />
        </mxCell>
        <mxCell id="3nuBFxr9cyL0pnOWT2aG-4" value="Feel tired" style="swimlane;swimlaneHead=0;swimlaneBody=0;connectable=0;fillColor=none;startSize=40;collapsible=0;recursiveResize=0;expand=0;fontStyle=1;" parent="3nuBFxr9cyL0pnOWT2aG-3" vertex="1">
          <mxGeometry x="40" width="130" height="180" as="geometry" />
        </mxCell>
        <mxCell id="3nuBFxr9cyL0pnOWT2aG-5" style="edgeStyle=orthogonalEdgeStyle;rounded=0;orthogonalLoop=1;jettySize=auto;html=1;" parent="3nuBFxr9cyL0pnOWT2aG-4" source="3nuBFxr9cyL0pnOWT2aG-6" target="3nuBFxr9cyL0pnOWT2aG-7" edge="1">
          <mxGeometry relative="1" as="geometry" />
        </mxCell>
        <mxCell id="3nuBFxr9cyL0pnOWT2aG-6" value="Start" style="rounded=1;whiteSpace=wrap;html=1;arcSize=50;" parent="3nuBFxr9cyL0pnOWT2aG-4" vertex="1">
          <mxGeometry x="20" y="60" width="90" height="40" as="geometry" />
        </mxCell>
        <mxCell id="3nuBFxr9cyL0pnOWT2aG-7" value="Find barista" style="rounded=0;whiteSpace=wrap;html=1;" parent="3nuBFxr9cyL0pnOWT2aG-4" vertex="1">
          <mxGeometry x="20" y="120" width="90" height="40" as="geometry" />
        </mxCell>
        <mxCell id="3nuBFxr9cyL0pnOWT2aG-8" value="Make transaction" style="swimlane;swimlaneHead=0;swimlaneBody=0;connectable=0;fillColor=none;startSize=40;collapsible=0;recursiveResize=0;expand=0;fontStyle=1;" parent="3nuBFxr9cyL0pnOWT2aG-3" vertex="1">
          <mxGeometry x="170" width="370" height="180" as="geometry" />
        </mxCell>
        <mxCell id="3nuBFxr9cyL0pnOWT2aG-9" value="Request latte" style="rounded=0;whiteSpace=wrap;html=1;" parent="3nuBFxr9cyL0pnOWT2aG-8" vertex="1">
          <mxGeometry x="20" y="120" width="90" height="40" as="geometry" />
        </mxCell>
        <mxCell id="3nuBFxr9cyL0pnOWT2aG-10" value="Buy latte" style="rounded=0;whiteSpace=wrap;html=1;" parent="3nuBFxr9cyL0pnOWT2aG-8" vertex="1">
          <mxGeometry x="150" y="120" width="90" height="40" as="geometry" />
        </mxCell>
        <mxCell id="3nuBFxr9cyL0pnOWT2aG-11" value="Feel perky" style="swimlane;swimlaneHead=0;swimlaneBody=0;connectable=0;fillColor=none;startSize=40;collapsible=0;recursiveResize=0;expand=0;fontStyle=1;" parent="3nuBFxr9cyL0pnOWT2aG-3" vertex="1">
          <mxGeometry x="540" width="130" height="180" as="geometry" />
        </mxCell>
        <mxCell id="3nuBFxr9cyL0pnOWT2aG-12" style="edgeStyle=orthogonalEdgeStyle;rounded=0;orthogonalLoop=1;jettySize=auto;html=1;" parent="3nuBFxr9cyL0pnOWT2aG-11" source="3nuBFxr9cyL0pnOWT2aG-13" target="3nuBFxr9cyL0pnOWT2aG-14" edge="1">
          <mxGeometry relative="1" as="geometry" />
        </mxCell>
        <mxCell id="3nuBFxr9cyL0pnOWT2aG-13" value="Drink latte" style="rounded=0;whiteSpace=wrap;html=1;" parent="3nuBFxr9cyL0pnOWT2aG-11" vertex="1">
          <mxGeometry x="20" y="60" width="90" height="40" as="geometry" />
        </mxCell>
        <mxCell id="3nuBFxr9cyL0pnOWT2aG-14" value="End" style="rounded=1;whiteSpace=wrap;html=1;arcSize=50;" parent="3nuBFxr9cyL0pnOWT2aG-11" vertex="1">
          <mxGeometry x="20" y="120" width="90" height="40" as="geometry" />
        </mxCell>
        <mxCell id="3nuBFxr9cyL0pnOWT2aG-15" value="Barista" style="shape=tableRow;horizontal=0;swimlaneHead=0;swimlaneBody=0;top=0;left=0;bottom=0;right=0;fillColor=none;points=[[0,0.5],[1,0.5]];portConstraint=eastwest;startSize=40;collapsible=0;recursiveResize=0;expand=0;fontStyle=1;" parent="3nuBFxr9cyL0pnOWT2aG-1" vertex="1">
          <mxGeometry y="220" width="670" height="80" as="geometry" />
        </mxCell>
        <mxCell id="3nuBFxr9cyL0pnOWT2aG-16" value="" style="swimlane;swimlaneHead=0;swimlaneBody=0;connectable=0;fillColor=none;startSize=0;collapsible=0;recursiveResize=0;expand=0;fontStyle=1;" parent="3nuBFxr9cyL0pnOWT2aG-15" vertex="1">
          <mxGeometry x="40" width="130" height="80" as="geometry" />
        </mxCell>
        <mxCell id="3nuBFxr9cyL0pnOWT2aG-17" value="Greet customer" style="rounded=0;whiteSpace=wrap;html=1;" parent="3nuBFxr9cyL0pnOWT2aG-16" vertex="1">
          <mxGeometry x="20" y="20" width="90" height="40" as="geometry" />
        </mxCell>
        <mxCell id="3nuBFxr9cyL0pnOWT2aG-18" value="" style="swimlane;swimlaneHead=0;swimlaneBody=0;connectable=0;fillColor=none;startSize=0;collapsible=0;recursiveResize=0;expand=0;fontStyle=1;" parent="3nuBFxr9cyL0pnOWT2aG-15" vertex="1">
          <mxGeometry x="170" width="370" height="80" as="geometry" />
        </mxCell>
        <mxCell id="3nuBFxr9cyL0pnOWT2aG-19" value="" style="edgeStyle=orthogonalEdgeStyle;rounded=0;orthogonalLoop=1;jettySize=auto;html=1;" parent="3nuBFxr9cyL0pnOWT2aG-18" source="3nuBFxr9cyL0pnOWT2aG-20" target="3nuBFxr9cyL0pnOWT2aG-22" edge="1">
          <mxGeometry relative="1" as="geometry" />
        </mxCell>
        <mxCell id="3nuBFxr9cyL0pnOWT2aG-20" value="Accept&lt;br&gt;payment" style="rounded=0;whiteSpace=wrap;html=1;" parent="3nuBFxr9cyL0pnOWT2aG-18" vertex="1">
          <mxGeometry x="150" y="20" width="90" height="40" as="geometry" />
        </mxCell>
        <mxCell id="3nuBFxr9cyL0pnOWT2aG-21" value="Write details&lt;br&gt;on cup" style="shape=document;whiteSpace=wrap;html=1;boundedLbl=1;" parent="3nuBFxr9cyL0pnOWT2aG-18" vertex="1">
          <mxGeometry x="20" y="10" width="90" height="60" as="geometry" />
        </mxCell>
        <mxCell id="3nuBFxr9cyL0pnOWT2aG-22" value="Make latte" style="shape=process;whiteSpace=wrap;html=1;backgroundOutline=1;" parent="3nuBFxr9cyL0pnOWT2aG-18" vertex="1">
          <mxGeometry x="260" y="20" width="90" height="40" as="geometry" />
        </mxCell>
        <mxCell id="3nuBFxr9cyL0pnOWT2aG-23" value="" style="swimlane;swimlaneHead=0;swimlaneBody=0;connectable=0;fillColor=none;startSize=0;collapsible=0;recursiveResize=0;expand=0;fontStyle=1;" parent="3nuBFxr9cyL0pnOWT2aG-15" vertex="1">
          <mxGeometry x="540" width="130" height="80" as="geometry" />
        </mxCell>
        <mxCell id="3nuBFxr9cyL0pnOWT2aG-24" value="" style="edgeStyle=orthogonalEdgeStyle;rounded=0;orthogonalLoop=1;jettySize=auto;html=1;" parent="3nuBFxr9cyL0pnOWT2aG-1" source="3nuBFxr9cyL0pnOWT2aG-17" target="3nuBFxr9cyL0pnOWT2aG-9" edge="1">
          <mxGeometry relative="1" as="geometry">
            <Array as="points">
              <mxPoint x="160" y="260" />
              <mxPoint x="160" y="180" />
            </Array>
          </mxGeometry>
        </mxCell>
        <mxCell id="3nuBFxr9cyL0pnOWT2aG-25" value="" style="edgeStyle=orthogonalEdgeStyle;rounded=0;orthogonalLoop=1;jettySize=auto;html=1;" parent="3nuBFxr9cyL0pnOWT2aG-1" source="3nuBFxr9cyL0pnOWT2aG-9" target="3nuBFxr9cyL0pnOWT2aG-21" edge="1">
          <mxGeometry relative="1" as="geometry" />
        </mxCell>
        <mxCell id="3nuBFxr9cyL0pnOWT2aG-26" value="" style="edgeStyle=orthogonalEdgeStyle;rounded=0;orthogonalLoop=1;jettySize=auto;html=1;" parent="3nuBFxr9cyL0pnOWT2aG-1" source="3nuBFxr9cyL0pnOWT2aG-21" target="3nuBFxr9cyL0pnOWT2aG-10" edge="1">
          <mxGeometry relative="1" as="geometry">
            <Array as="points">
              <mxPoint x="300" y="260" />
              <mxPoint x="300" y="180" />
            </Array>
          </mxGeometry>
        </mxCell>
        <mxCell id="3nuBFxr9cyL0pnOWT2aG-27" value="" style="edgeStyle=orthogonalEdgeStyle;rounded=0;orthogonalLoop=1;jettySize=auto;html=1;" parent="3nuBFxr9cyL0pnOWT2aG-1" source="3nuBFxr9cyL0pnOWT2aG-10" target="3nuBFxr9cyL0pnOWT2aG-20" edge="1">
          <mxGeometry relative="1" as="geometry" />
        </mxCell>
        <mxCell id="3nuBFxr9cyL0pnOWT2aG-28" style="edgeStyle=orthogonalEdgeStyle;rounded=0;orthogonalLoop=1;jettySize=auto;html=1;" parent="3nuBFxr9cyL0pnOWT2aG-1" source="3nuBFxr9cyL0pnOWT2aG-22" target="3nuBFxr9cyL0pnOWT2aG-13" edge="1">
          <mxGeometry relative="1" as="geometry">
            <Array as="points">
              <mxPoint x="530" y="260" />
              <mxPoint x="530" y="120" />
            </Array>
          </mxGeometry>
        </mxCell>
      </root>
    </mxGraphModel>
  </diagram>
  <diagram name="purchase-groceries-online" id="19Bvmwggpy1IBi-yL9dk">
    <mxGraphModel dx="4721" dy="1240" grid="1" gridSize="10" guides="1" tooltips="1" connect="1" arrows="1" fold="1" page="1" pageScale="1" pageWidth="2336" pageHeight="1654" math="0" shadow="0">
      <root>
        <mxCell id="0" />
        <mxCell id="1" parent="0" />
        <mxCell id="gWhWabP_F0V6RctqcrPL-3" value="" style="group" parent="1" vertex="1" connectable="0">
          <mxGeometry x="-2228" y="80" width="2120" height="980" as="geometry" />
        </mxCell>
        <mxCell id="gWhWabP_F0V6RctqcrPL-1" value="" style="group" parent="gWhWabP_F0V6RctqcrPL-3" vertex="1" connectable="0">
          <mxGeometry width="2120" height="980" as="geometry" />
        </mxCell>
        <mxCell id="nW9fMLdY71jYZeTw1rtJ-126" value="Customer wants to purchase groceries online" style="rounded=0;whiteSpace=wrap;html=1;labelBackgroundColor=none;strokeWidth=1;fillColor=#d5e8d4;fontSize=30;strokeColor=#808080;" parent="gWhWabP_F0V6RctqcrPL-1" vertex="1">
          <mxGeometry width="2120" height="60" as="geometry" />
        </mxCell>
        <mxCell id="nW9fMLdY71jYZeTw1rtJ-128" value="" style="rounded=0;whiteSpace=wrap;html=1;labelBackgroundColor=none;strokeWidth=1;fontSize=30;fillColor=none;strokeColor=#808080;" parent="gWhWabP_F0V6RctqcrPL-1" vertex="1">
          <mxGeometry y="60" width="2120" height="260" as="geometry" />
        </mxCell>
        <mxCell id="nW9fMLdY71jYZeTw1rtJ-129" value="" style="rounded=0;whiteSpace=wrap;html=1;labelBackgroundColor=none;strokeWidth=1;fontSize=30;fillColor=none;strokeColor=#808080;" parent="gWhWabP_F0V6RctqcrPL-1" vertex="1">
          <mxGeometry y="320" width="2120" height="240" as="geometry" />
        </mxCell>
        <mxCell id="nW9fMLdY71jYZeTw1rtJ-130" value="" style="rounded=0;whiteSpace=wrap;html=1;labelBackgroundColor=none;strokeWidth=1;fontSize=30;fillColor=none;strokeColor=#808080;" parent="gWhWabP_F0V6RctqcrPL-1" vertex="1">
          <mxGeometry y="560" width="2120" height="420" as="geometry" />
        </mxCell>
        <mxCell id="nW9fMLdY71jYZeTw1rtJ-81" value="&lt;b&gt;&lt;font style=&quot;font-size: 20px&quot;&gt;Activities&lt;/font&gt;&lt;/b&gt;" style="text;html=1;strokeColor=none;fillColor=none;align=center;verticalAlign=middle;whiteSpace=wrap;rounded=0;" parent="gWhWabP_F0V6RctqcrPL-3" vertex="1">
          <mxGeometry x="40" y="160" width="40" height="20" as="geometry" />
        </mxCell>
        <mxCell id="nW9fMLdY71jYZeTw1rtJ-82" value="&lt;b&gt;&lt;font style=&quot;font-size: 20px&quot;&gt;Tasks&lt;/font&gt;&lt;/b&gt;" style="text;html=1;strokeColor=none;fillColor=none;align=center;verticalAlign=middle;whiteSpace=wrap;rounded=0;" parent="gWhWabP_F0V6RctqcrPL-3" vertex="1">
          <mxGeometry x="20" y="360" width="40" height="20" as="geometry" />
        </mxCell>
        <mxCell id="nW9fMLdY71jYZeTw1rtJ-83" value="&lt;b&gt;&lt;font style=&quot;font-size: 20px&quot;&gt;Sub-tasks&lt;/font&gt;&lt;/b&gt;" style="text;html=1;strokeColor=none;fillColor=none;align=center;verticalAlign=middle;whiteSpace=wrap;rounded=0;" parent="gWhWabP_F0V6RctqcrPL-3" vertex="1">
          <mxGeometry y="630" width="130" height="20" as="geometry" />
        </mxCell>
        <mxCell id="nW9fMLdY71jYZeTw1rtJ-51" style="rounded=0;orthogonalLoop=1;jettySize=auto;html=1;dashed=1;dashPattern=1 4;edgeStyle=orthogonalEdgeStyle;" parent="1" source="nW9fMLdY71jYZeTw1rtJ-47" target="nW9fMLdY71jYZeTw1rtJ-45" edge="1">
          <mxGeometry relative="1" as="geometry">
            <Array as="points">
              <mxPoint x="-1488" y="410" />
              <mxPoint x="-1418" y="410" />
              <mxPoint x="-1418" y="760" />
            </Array>
          </mxGeometry>
        </mxCell>
        <mxCell id="nW9fMLdY71jYZeTw1rtJ-52" style="edgeStyle=orthogonalEdgeStyle;rounded=0;orthogonalLoop=1;jettySize=auto;html=1;dashed=1;dashPattern=1 4;" parent="1" source="nW9fMLdY71jYZeTw1rtJ-47" target="nW9fMLdY71jYZeTw1rtJ-36" edge="1">
          <mxGeometry relative="1" as="geometry">
            <Array as="points">
              <mxPoint x="-1488" y="410" />
              <mxPoint x="-1418" y="410" />
              <mxPoint x="-1418" y="650" />
              <mxPoint x="-1248" y="650" />
              <mxPoint x="-1248" y="900" />
            </Array>
          </mxGeometry>
        </mxCell>
        <mxCell id="nW9fMLdY71jYZeTw1rtJ-54" style="edgeStyle=orthogonalEdgeStyle;rounded=0;orthogonalLoop=1;jettySize=auto;html=1;dashed=1;dashPattern=1 4;" parent="1" source="nW9fMLdY71jYZeTw1rtJ-47" target="nW9fMLdY71jYZeTw1rtJ-53" edge="1">
          <mxGeometry relative="1" as="geometry">
            <Array as="points">
              <mxPoint x="-1488" y="180" />
              <mxPoint x="-1168" y="180" />
            </Array>
          </mxGeometry>
        </mxCell>
        <mxCell id="nW9fMLdY71jYZeTw1rtJ-65" style="edgeStyle=orthogonalEdgeStyle;rounded=0;orthogonalLoop=1;jettySize=auto;html=1;dashed=1;dashPattern=1 4;" parent="1" source="nW9fMLdY71jYZeTw1rtJ-47" target="nW9fMLdY71jYZeTw1rtJ-37" edge="1">
          <mxGeometry relative="1" as="geometry">
            <Array as="points">
              <mxPoint x="-1488" y="180" />
              <mxPoint x="-768" y="180" />
            </Array>
          </mxGeometry>
        </mxCell>
        <mxCell id="nW9fMLdY71jYZeTw1rtJ-66" style="edgeStyle=orthogonalEdgeStyle;rounded=0;orthogonalLoop=1;jettySize=auto;html=1;dashed=1;dashPattern=1 4;" parent="1" source="nW9fMLdY71jYZeTw1rtJ-47" target="nW9fMLdY71jYZeTw1rtJ-41" edge="1">
          <mxGeometry relative="1" as="geometry">
            <Array as="points">
              <mxPoint x="-1488" y="180" />
              <mxPoint x="-368" y="180" />
            </Array>
          </mxGeometry>
        </mxCell>
        <mxCell id="nW9fMLdY71jYZeTw1rtJ-67" style="edgeStyle=orthogonalEdgeStyle;rounded=0;orthogonalLoop=1;jettySize=auto;html=1;dashed=1;dashPattern=1 4;" parent="1" source="nW9fMLdY71jYZeTw1rtJ-47" target="nW9fMLdY71jYZeTw1rtJ-60" edge="1">
          <mxGeometry relative="1" as="geometry">
            <Array as="points">
              <mxPoint x="-1488" y="180" />
              <mxPoint x="-208" y="180" />
            </Array>
          </mxGeometry>
        </mxCell>
        <mxCell id="nW9fMLdY71jYZeTw1rtJ-21" value="search for products" style="rounded=1;whiteSpace=wrap;html=1;fillColor=#dae8fc;strokeColor=#6c8ebf;" parent="1" vertex="1">
          <mxGeometry x="-1708" y="220" width="120" height="60" as="geometry" />
        </mxCell>
        <mxCell id="nW9fMLdY71jYZeTw1rtJ-22" value="preview item photo" style="rounded=1;whiteSpace=wrap;html=1;fillColor=#fff2cc;strokeColor=#d6b656;fontStyle=2" parent="1" vertex="1">
          <mxGeometry x="-1868" y="490" width="120" height="60" as="geometry" />
        </mxCell>
        <mxCell id="nW9fMLdY71jYZeTw1rtJ-23" value="read product description" style="rounded=1;whiteSpace=wrap;html=1;fillColor=#d5e8d4;strokeColor=#82b366;" parent="1" vertex="1">
          <mxGeometry x="-1868" y="420" width="120" height="60" as="geometry" />
        </mxCell>
        <mxCell id="nW9fMLdY71jYZeTw1rtJ-24" value="view individual product" style="rounded=1;whiteSpace=wrap;html=1;fillColor=#dae8fc;strokeColor=#6c8ebf;" parent="1" vertex="1">
          <mxGeometry x="-1868" y="220" width="120" height="60" as="geometry" />
        </mxCell>
        <mxCell id="nW9fMLdY71jYZeTw1rtJ-26" value="see a list of ranked search results" style="rounded=1;whiteSpace=wrap;html=1;fillColor=#d5e8d4;strokeColor=#82b366;" parent="1" vertex="1">
          <mxGeometry x="-1708" y="420" width="120" height="60" as="geometry" />
        </mxCell>
        <mxCell id="nW9fMLdY71jYZeTw1rtJ-28" value="read reviews" style="rounded=1;whiteSpace=wrap;html=1;fillColor=#f8cecc;strokeColor=#b85450;fontStyle=2" parent="1" vertex="1">
          <mxGeometry x="-1878" y="660" width="120" height="60" as="geometry" />
        </mxCell>
        <mxCell id="nW9fMLdY71jYZeTw1rtJ-70" style="edgeStyle=orthogonalEdgeStyle;rounded=0;orthogonalLoop=1;jettySize=auto;html=1;dashed=1;dashPattern=1 4;" parent="1" source="nW9fMLdY71jYZeTw1rtJ-29" target="nW9fMLdY71jYZeTw1rtJ-53" edge="1">
          <mxGeometry relative="1" as="geometry">
            <Array as="points">
              <mxPoint x="-1248" y="230" />
              <mxPoint x="-1248" y="230" />
            </Array>
          </mxGeometry>
        </mxCell>
        <mxCell id="nW9fMLdY71jYZeTw1rtJ-29" value="add product to shopping cart" style="rounded=1;whiteSpace=wrap;html=1;fillColor=#dae8fc;strokeColor=#6c8ebf;" parent="1" vertex="1">
          <mxGeometry x="-1388" y="220" width="120" height="60" as="geometry" />
        </mxCell>
        <mxCell id="nW9fMLdY71jYZeTw1rtJ-30" value="change product quantities" style="rounded=1;whiteSpace=wrap;html=1;fillColor=#d5e8d4;strokeColor=#82b366;" parent="1" vertex="1">
          <mxGeometry x="-1388" y="490" width="120" height="60" as="geometry" />
        </mxCell>
        <mxCell id="nW9fMLdY71jYZeTw1rtJ-31" value="delete product from shopping cart" style="rounded=1;whiteSpace=wrap;html=1;fillColor=#dae8fc;strokeColor=#6c8ebf;" parent="1" vertex="1">
          <mxGeometry x="-1388" y="280" width="120" height="60" as="geometry" />
        </mxCell>
        <mxCell id="nW9fMLdY71jYZeTw1rtJ-32" value="add a note to packer about this product" style="rounded=1;whiteSpace=wrap;html=1;fillColor=#f8cecc;strokeColor=#b85450;fontStyle=2" parent="1" vertex="1">
          <mxGeometry x="-1398" y="660" width="120" height="60" as="geometry" />
        </mxCell>
        <mxCell id="nW9fMLdY71jYZeTw1rtJ-34" value="get delivery cost quote" style="rounded=1;whiteSpace=wrap;html=1;fillColor=#d5e8d4;strokeColor=#82b366;" parent="1" vertex="1">
          <mxGeometry x="-1108" y="420" width="120" height="60" as="geometry" />
        </mxCell>
        <mxCell id="nW9fMLdY71jYZeTw1rtJ-35" value="check postcode for delivery area" style="rounded=1;whiteSpace=wrap;html=1;fillColor=#d5e8d4;strokeColor=#82b366;" parent="1" vertex="1">
          <mxGeometry x="-1228" y="420" width="120" height="60" as="geometry" />
        </mxCell>
        <mxCell id="nW9fMLdY71jYZeTw1rtJ-36" value="save details to profile for future orders" style="rounded=1;whiteSpace=wrap;html=1;fillColor=#f8cecc;strokeColor=#b85450;fontStyle=2" parent="1" vertex="1">
          <mxGeometry x="-1238" y="870" width="120" height="60" as="geometry" />
        </mxCell>
        <mxCell id="nW9fMLdY71jYZeTw1rtJ-72" style="edgeStyle=orthogonalEdgeStyle;rounded=0;orthogonalLoop=1;jettySize=auto;html=1;dashed=1;dashPattern=1 4;" parent="1" source="nW9fMLdY71jYZeTw1rtJ-37" target="nW9fMLdY71jYZeTw1rtJ-41" edge="1">
          <mxGeometry relative="1" as="geometry">
            <Array as="points">
              <mxPoint x="-568" y="230" />
              <mxPoint x="-568" y="230" />
            </Array>
          </mxGeometry>
        </mxCell>
        <mxCell id="nW9fMLdY71jYZeTw1rtJ-37" value="pay for order" style="rounded=1;whiteSpace=wrap;html=1;fillColor=#dae8fc;strokeColor=#6c8ebf;" parent="1" vertex="1">
          <mxGeometry x="-828" y="220" width="120" height="60" as="geometry" />
        </mxCell>
        <mxCell id="nW9fMLdY71jYZeTw1rtJ-38" value="select payment method" style="rounded=1;whiteSpace=wrap;html=1;fillColor=#d5e8d4;strokeColor=#82b366;" parent="1" vertex="1">
          <mxGeometry x="-828" y="420" width="120" height="60" as="geometry" />
        </mxCell>
        <mxCell id="nW9fMLdY71jYZeTw1rtJ-39" value="enter payment details" style="rounded=1;whiteSpace=wrap;html=1;fillColor=#d5e8d4;strokeColor=#82b366;" parent="1" vertex="1">
          <mxGeometry x="-708" y="420" width="120" height="60" as="geometry" />
        </mxCell>
        <mxCell id="nW9fMLdY71jYZeTw1rtJ-40" value="receive payment confirmation" style="rounded=1;whiteSpace=wrap;html=1;fillColor=#d5e8d4;strokeColor=#82b366;" parent="1" vertex="1">
          <mxGeometry x="-588" y="420" width="120" height="60" as="geometry" />
        </mxCell>
        <mxCell id="nW9fMLdY71jYZeTw1rtJ-41" value="track order" style="rounded=1;whiteSpace=wrap;html=1;fillColor=#f8cecc;strokeColor=#b85450;fontStyle=2" parent="1" vertex="1">
          <mxGeometry x="-428" y="220" width="120" height="60" as="geometry" />
        </mxCell>
        <mxCell id="nW9fMLdY71jYZeTw1rtJ-42" value="use tracking or order number to check delivery status" style="rounded=1;whiteSpace=wrap;html=1;fillColor=#f8cecc;strokeColor=#b85450;fontStyle=2" parent="1" vertex="1">
          <mxGeometry x="-428" y="420" width="120" height="60" as="geometry" />
        </mxCell>
        <mxCell id="nW9fMLdY71jYZeTw1rtJ-43" value="select delivery window" style="rounded=1;whiteSpace=wrap;html=1;fillColor=#f8cecc;strokeColor=#b85450;fontStyle=2" parent="1" vertex="1">
          <mxGeometry x="-1118" y="660" width="120" height="60" as="geometry" />
        </mxCell>
        <mxCell id="nW9fMLdY71jYZeTw1rtJ-44" value="save details to profile for future orders" style="rounded=1;whiteSpace=wrap;html=1;fillColor=#f8cecc;strokeColor=#b85450;fontStyle=2" parent="1" vertex="1">
          <mxGeometry x="-838" y="660" width="120" height="60" as="geometry" />
        </mxCell>
        <mxCell id="nW9fMLdY71jYZeTw1rtJ-45" value="save order to complete later" style="rounded=1;whiteSpace=wrap;html=1;fillColor=#f8cecc;strokeColor=#b85450;fontStyle=2" parent="1" vertex="1">
          <mxGeometry x="-1398" y="730" width="120" height="60" as="geometry" />
        </mxCell>
        <UserObject label="create account" link="data:page/id,qFKpWn06HUlJq2veHpSm" id="nW9fMLdY71jYZeTw1rtJ-47">
          <mxCell style="rounded=1;whiteSpace=wrap;html=1;fillColor=#dae8fc;strokeColor=#6c8ebf;" parent="1" vertex="1">
            <mxGeometry x="-1548" y="220" width="120" height="60" as="geometry" />
          </mxCell>
        </UserObject>
        <UserObject label="add delivery address" link="data:page/id,qFKpWn06HUlJq2veHpSm" id="nW9fMLdY71jYZeTw1rtJ-48">
          <mxCell style="rounded=1;whiteSpace=wrap;html=1;fillColor=#d5e8d4;strokeColor=#82b366;" parent="1" vertex="1">
            <mxGeometry x="-1548" y="420" width="120" height="60" as="geometry" />
          </mxCell>
        </UserObject>
        <UserObject label="change delivery address" link="data:page/id,qFKpWn06HUlJq2veHpSm" id="nW9fMLdY71jYZeTw1rtJ-49">
          <mxCell style="rounded=1;whiteSpace=wrap;html=1;fillColor=#f8cecc;strokeColor=#b85450;fontStyle=2" parent="1" vertex="1">
            <mxGeometry x="-1558" y="660" width="120" height="60" as="geometry" />
          </mxCell>
        </UserObject>
        <mxCell id="nW9fMLdY71jYZeTw1rtJ-71" style="edgeStyle=orthogonalEdgeStyle;rounded=0;orthogonalLoop=1;jettySize=auto;html=1;dashed=1;dashPattern=1 4;" parent="1" source="nW9fMLdY71jYZeTw1rtJ-53" target="nW9fMLdY71jYZeTw1rtJ-37" edge="1">
          <mxGeometry relative="1" as="geometry">
            <Array as="points">
              <mxPoint x="-978" y="230" />
              <mxPoint x="-978" y="230" />
            </Array>
          </mxGeometry>
        </mxCell>
        <mxCell id="nW9fMLdY71jYZeTw1rtJ-53" value="place order" style="rounded=1;whiteSpace=wrap;html=1;fillColor=#dae8fc;strokeColor=#6c8ebf;" parent="1" vertex="1">
          <mxGeometry x="-1228" y="220" width="120" height="60" as="geometry" />
        </mxCell>
        <mxCell id="nW9fMLdY71jYZeTw1rtJ-55" value="review itemised order" style="rounded=1;whiteSpace=wrap;html=1;fillColor=#d5e8d4;strokeColor=#82b366;" parent="1" vertex="1">
          <mxGeometry x="-1228" y="490" width="120" height="60" as="geometry" />
        </mxCell>
        <mxCell id="nW9fMLdY71jYZeTw1rtJ-56" value="add note to packer about entire order" style="rounded=1;whiteSpace=wrap;html=1;fillColor=#f8cecc;strokeColor=#b85450;fontStyle=2" parent="1" vertex="1">
          <mxGeometry x="-1238" y="800" width="120" height="60" as="geometry" />
        </mxCell>
        <mxCell id="nW9fMLdY71jYZeTw1rtJ-57" value="add note to delivery service" style="rounded=1;whiteSpace=wrap;html=1;fillColor=#f8cecc;strokeColor=#b85450;fontStyle=2" parent="1" vertex="1">
          <mxGeometry x="-1238" y="730" width="120" height="60" as="geometry" />
        </mxCell>
        <mxCell id="nW9fMLdY71jYZeTw1rtJ-58" value="agree to pay" style="rounded=1;whiteSpace=wrap;html=1;fillColor=#d5e8d4;strokeColor=#82b366;" parent="1" vertex="1">
          <mxGeometry x="-988" y="420" width="120" height="60" as="geometry" />
        </mxCell>
        <mxCell id="nW9fMLdY71jYZeTw1rtJ-59" value="review itemised invoice and payment details" style="rounded=1;whiteSpace=wrap;html=1;fillColor=#f8cecc;strokeColor=#b85450;fontStyle=2" parent="1" vertex="1">
          <mxGeometry x="-428" y="490" width="120" height="60" as="geometry" />
        </mxCell>
        <mxCell id="nW9fMLdY71jYZeTw1rtJ-60" value="order favourite products easily" style="rounded=1;whiteSpace=wrap;html=1;fillColor=#f8cecc;strokeColor=#b85450;fontStyle=2" parent="1" vertex="1">
          <mxGeometry x="-268" y="220" width="120" height="60" as="geometry" />
        </mxCell>
        <mxCell id="nW9fMLdY71jYZeTw1rtJ-61" value="mark products as favourites" style="rounded=1;whiteSpace=wrap;html=1;fillColor=#f8cecc;strokeColor=#b85450;fontStyle=2" parent="1" vertex="1">
          <mxGeometry x="-268" y="420" width="120" height="60" as="geometry" />
        </mxCell>
        <mxCell id="nW9fMLdY71jYZeTw1rtJ-62" value="purchase products from previous orders" style="rounded=1;whiteSpace=wrap;html=1;fillColor=#f8cecc;strokeColor=#b85450;fontStyle=2" parent="1" vertex="1">
          <mxGeometry x="-268" y="490" width="120" height="60" as="geometry" />
        </mxCell>
        <mxCell id="nW9fMLdY71jYZeTw1rtJ-63" value="make custom lists of products" style="rounded=1;whiteSpace=wrap;html=1;fillColor=#f8cecc;strokeColor=#b85450;fontStyle=2" parent="1" vertex="1">
          <mxGeometry x="-278" y="660" width="120" height="60" as="geometry" />
        </mxCell>
        <mxCell id="nW9fMLdY71jYZeTw1rtJ-64" value="set up recurring purchases" style="rounded=1;whiteSpace=wrap;html=1;fillColor=#f8cecc;strokeColor=#b85450;fontStyle=2" parent="1" vertex="1">
          <mxGeometry x="-278" y="730" width="120" height="60" as="geometry" />
        </mxCell>
        <mxCell id="nW9fMLdY71jYZeTw1rtJ-68" value="write review" style="rounded=1;whiteSpace=wrap;html=1;fillColor=#f8cecc;strokeColor=#b85450;fontStyle=2" parent="1" vertex="1">
          <mxGeometry x="-1878" y="730" width="120" height="60" as="geometry" />
        </mxCell>
        <mxCell id="nW9fMLdY71jYZeTw1rtJ-69" value="view product categories" style="rounded=1;whiteSpace=wrap;html=1;fillColor=#d5e8d4;strokeColor=#82b366;" parent="1" vertex="1">
          <mxGeometry x="-2028" y="490" width="120" height="60" as="geometry" />
        </mxCell>
        <mxCell id="nW9fMLdY71jYZeTw1rtJ-73" value="select delivery method" style="rounded=1;whiteSpace=wrap;html=1;fillColor=#f8cecc;strokeColor=#b85450;fontStyle=2" parent="1" vertex="1">
          <mxGeometry x="-1238" y="660" width="120" height="60" as="geometry" />
        </mxCell>
        <mxCell id="nW9fMLdY71jYZeTw1rtJ-74" value="delete delivery address" style="rounded=1;whiteSpace=wrap;html=1;fillColor=#d5e8d4;strokeColor=#82b366;" parent="1" vertex="1">
          <mxGeometry x="-1548" y="480" width="120" height="60" as="geometry" />
        </mxCell>
        <mxCell id="nW9fMLdY71jYZeTw1rtJ-75" value="review shopping cart" style="rounded=1;whiteSpace=wrap;html=1;fillColor=#d5e8d4;strokeColor=#82b366;" parent="1" vertex="1">
          <mxGeometry x="-1388" y="420" width="120" height="60" as="geometry" />
        </mxCell>
        <mxCell id="nW9fMLdY71jYZeTw1rtJ-76" value="view all products" style="rounded=1;whiteSpace=wrap;html=1;fillColor=#dae8fc;strokeColor=#6c8ebf;" parent="1" vertex="1">
          <mxGeometry x="-2028" y="220" width="120" height="60" as="geometry" />
        </mxCell>
        <mxCell id="nW9fMLdY71jYZeTw1rtJ-77" value="see prices of all products" style="rounded=1;whiteSpace=wrap;html=1;fillColor=#d5e8d4;strokeColor=#82b366;" parent="1" vertex="1">
          <mxGeometry x="-2028" y="420" width="120" height="60" as="geometry" />
        </mxCell>
        <mxCell id="nW9fMLdY71jYZeTw1rtJ-78" value="see ingredients list" style="rounded=1;whiteSpace=wrap;html=1;fillColor=#f8cecc;strokeColor=#b85450;fontStyle=2" parent="1" vertex="1">
          <mxGeometry x="-1878" y="800" width="120" height="60" as="geometry" />
        </mxCell>
        <mxCell id="nW9fMLdY71jYZeTw1rtJ-79" value="see production location" style="rounded=1;whiteSpace=wrap;html=1;fillColor=#f8cecc;strokeColor=#b85450;fontStyle=2" parent="1" vertex="1">
          <mxGeometry x="-1878" y="930" width="120" height="60" as="geometry" />
        </mxCell>
        <mxCell id="nW9fMLdY71jYZeTw1rtJ-80" value="see health information" style="rounded=1;whiteSpace=wrap;html=1;fillColor=#f8cecc;strokeColor=#b85450;fontStyle=2" parent="1" vertex="1">
          <mxGeometry x="-1878" y="860" width="120" height="60" as="geometry" />
        </mxCell>
        <mxCell id="nW9fMLdY71jYZeTw1rtJ-84" value="red = out of scope for this release" style="rounded=1;whiteSpace=wrap;html=1;fillColor=#f8cecc;strokeColor=#b85450;fontStyle=0" parent="1" vertex="1">
          <mxGeometry x="-2188" y="1110" width="120" height="60" as="geometry" />
        </mxCell>
        <mxCell id="nW9fMLdY71jYZeTw1rtJ-90" value="" style="verticalLabelPosition=bottom;verticalAlign=top;html=1;shape=mxgraph.basic.tick;strokeWidth=3;fontColor=#ffffff;fillColor=#006633;strokeColor=#006633;" parent="1" vertex="1">
          <mxGeometry x="-2050.5" y="260" width="20" height="20" as="geometry" />
        </mxCell>
        <mxCell id="nW9fMLdY71jYZeTw1rtJ-94" value="yellow = third-party service" style="rounded=1;whiteSpace=wrap;html=1;strokeWidth=1;fillColor=#fff2cc;strokeColor=#d6b656;" parent="1" vertex="1">
          <mxGeometry x="-2058" y="1110" width="120" height="60" as="geometry" />
        </mxCell>
        <mxCell id="nW9fMLdY71jYZeTw1rtJ-97" value="Feature complete" style="verticalLabelPosition=bottom;verticalAlign=top;html=1;shape=mxgraph.basic.tick;strokeWidth=3;fillColor=#006633;strokeColor=#006633;fontColor=#006633;" parent="1" vertex="1">
          <mxGeometry x="-1620" y="1120" width="20" height="20" as="geometry" />
        </mxCell>
        <mxCell id="nW9fMLdY71jYZeTw1rtJ-98" value="" style="verticalLabelPosition=bottom;verticalAlign=top;html=1;shape=mxgraph.basic.tick;strokeWidth=3;fontColor=#ffffff;fillColor=#006633;strokeColor=#006633;" parent="1" vertex="1">
          <mxGeometry x="-2048" y="459" width="20" height="20" as="geometry" />
        </mxCell>
        <mxCell id="nW9fMLdY71jYZeTw1rtJ-99" value="" style="verticalLabelPosition=bottom;verticalAlign=top;html=1;shape=mxgraph.basic.tick;strokeWidth=3;fontColor=#ffffff;fillColor=#006633;strokeColor=#006633;" parent="1" vertex="1">
          <mxGeometry x="-1888" y="260" width="20" height="20" as="geometry" />
        </mxCell>
        <mxCell id="nW9fMLdY71jYZeTw1rtJ-104" value="1" style="ellipse;whiteSpace=wrap;html=1;aspect=fixed;fontFamily=Helvetica;fontSize=18;align=center;strokeWidth=1;fillColor=#f5f5f5;strokeColor=#666666;fontColor=#333333;" parent="1" vertex="1">
          <mxGeometry x="-2053" y="235" width="25" height="25" as="geometry" />
        </mxCell>
        <mxCell id="nW9fMLdY71jYZeTw1rtJ-105" value="1" style="ellipse;whiteSpace=wrap;html=1;aspect=fixed;fontFamily=Helvetica;fontSize=18;align=center;strokeWidth=1;fillColor=#f5f5f5;strokeColor=#666666;fontColor=#333333;" parent="1" vertex="1">
          <mxGeometry x="-2053" y="435" width="25" height="25" as="geometry" />
        </mxCell>
        <mxCell id="nW9fMLdY71jYZeTw1rtJ-106" value="1" style="ellipse;whiteSpace=wrap;html=1;aspect=fixed;fontFamily=Helvetica;fontSize=18;align=center;strokeWidth=1;fillColor=#f5f5f5;strokeColor=#666666;fontColor=#333333;" parent="1" vertex="1">
          <mxGeometry x="-1893" y="235" width="25" height="25" as="geometry" />
        </mxCell>
        <mxCell id="nW9fMLdY71jYZeTw1rtJ-107" value="1" style="ellipse;whiteSpace=wrap;html=1;aspect=fixed;fontFamily=Helvetica;fontSize=18;align=center;strokeWidth=1;fillColor=#f5f5f5;strokeColor=#666666;fontColor=#333333;" parent="1" vertex="1">
          <mxGeometry x="-1893" y="435" width="25" height="25" as="geometry" />
        </mxCell>
        <mxCell id="nW9fMLdY71jYZeTw1rtJ-108" value="2" style="ellipse;whiteSpace=wrap;html=1;aspect=fixed;fontFamily=Helvetica;fontSize=18;align=center;strokeWidth=1;fillColor=#f5f5f5;strokeColor=#666666;fontColor=#333333;" parent="1" vertex="1">
          <mxGeometry x="-1733" y="235" width="25" height="25" as="geometry" />
        </mxCell>
        <mxCell id="nW9fMLdY71jYZeTw1rtJ-109" value="2" style="ellipse;whiteSpace=wrap;html=1;aspect=fixed;fontFamily=Helvetica;fontSize=18;align=center;strokeWidth=1;fillColor=#f5f5f5;strokeColor=#666666;fontColor=#333333;" parent="1" vertex="1">
          <mxGeometry x="-2055.5" y="507.5" width="25" height="25" as="geometry" />
        </mxCell>
        <mxCell id="nW9fMLdY71jYZeTw1rtJ-110" value="2" style="ellipse;whiteSpace=wrap;html=1;aspect=fixed;fontFamily=Helvetica;fontSize=18;align=center;strokeWidth=1;fillColor=#f5f5f5;strokeColor=#666666;fontColor=#333333;" parent="1" vertex="1">
          <mxGeometry x="-1733" y="434" width="25" height="25" as="geometry" />
        </mxCell>
        <mxCell id="nW9fMLdY71jYZeTw1rtJ-111" value="3" style="ellipse;whiteSpace=wrap;html=1;aspect=fixed;fontFamily=Helvetica;fontSize=18;align=center;strokeWidth=1;fillColor=#f5f5f5;strokeColor=#666666;fontColor=#333333;" parent="1" vertex="1">
          <mxGeometry x="-1573" y="235" width="25" height="25" as="geometry" />
        </mxCell>
        <mxCell id="nW9fMLdY71jYZeTw1rtJ-112" value="3" style="ellipse;whiteSpace=wrap;html=1;aspect=fixed;fontFamily=Helvetica;fontSize=18;align=center;strokeWidth=1;fillColor=#f5f5f5;strokeColor=#666666;fontColor=#333333;" parent="1" vertex="1">
          <mxGeometry x="-1573" y="434" width="25" height="25" as="geometry" />
        </mxCell>
        <mxCell id="nW9fMLdY71jYZeTw1rtJ-113" value="3" style="ellipse;whiteSpace=wrap;html=1;aspect=fixed;fontFamily=Helvetica;fontSize=18;align=center;strokeWidth=1;fillColor=#f5f5f5;strokeColor=#666666;fontColor=#333333;" parent="1" vertex="1">
          <mxGeometry x="-1573" y="497.5" width="25" height="25" as="geometry" />
        </mxCell>
        <mxCell id="nW9fMLdY71jYZeTw1rtJ-114" value="4" style="ellipse;whiteSpace=wrap;html=1;aspect=fixed;fontFamily=Helvetica;fontSize=18;align=center;strokeWidth=1;fillColor=#f5f5f5;strokeColor=#666666;fontColor=#333333;" parent="1" vertex="1">
          <mxGeometry x="-1413" y="237.5" width="25" height="25" as="geometry" />
        </mxCell>
        <mxCell id="nW9fMLdY71jYZeTw1rtJ-115" value="4" style="ellipse;whiteSpace=wrap;html=1;aspect=fixed;fontFamily=Helvetica;fontSize=18;align=center;strokeWidth=1;fillColor=#f5f5f5;strokeColor=#666666;fontColor=#333333;" parent="1" vertex="1">
          <mxGeometry x="-1413" y="297.5" width="25" height="25" as="geometry" />
        </mxCell>
        <mxCell id="nW9fMLdY71jYZeTw1rtJ-116" value="4" style="ellipse;whiteSpace=wrap;html=1;aspect=fixed;fontFamily=Helvetica;fontSize=18;align=center;strokeWidth=1;fillColor=#f5f5f5;strokeColor=#666666;fontColor=#333333;" parent="1" vertex="1">
          <mxGeometry x="-1413" y="434" width="25" height="25" as="geometry" />
        </mxCell>
        <mxCell id="nW9fMLdY71jYZeTw1rtJ-120" value="5" style="ellipse;whiteSpace=wrap;html=1;aspect=fixed;fontFamily=Helvetica;fontSize=18;align=center;strokeWidth=1;fillColor=#f5f5f5;strokeColor=#666666;fontColor=#333333;" parent="1" vertex="1">
          <mxGeometry x="-1413" y="507.5" width="25" height="25" as="geometry" />
        </mxCell>
        <mxCell id="nW9fMLdY71jYZeTw1rtJ-124" value="" style="group" parent="1" vertex="1" connectable="0">
          <mxGeometry x="-1536.75" y="1115" width="77.5" height="50" as="geometry" />
        </mxCell>
        <mxCell id="nW9fMLdY71jYZeTw1rtJ-122" value="1" style="ellipse;whiteSpace=wrap;html=1;aspect=fixed;fontFamily=Helvetica;fontSize=18;fontColor=#333333;align=center;strokeColor=#666666;strokeWidth=1;fillColor=#f5f5f5;" parent="nW9fMLdY71jYZeTw1rtJ-124" vertex="1">
          <mxGeometry x="23.75" y="5" width="25" height="25" as="geometry" />
        </mxCell>
        <mxCell id="nW9fMLdY71jYZeTw1rtJ-123" value="Sprint week" style="text;html=1;strokeColor=none;fillColor=none;align=center;verticalAlign=middle;whiteSpace=wrap;rounded=0;fontSize=12;" parent="nW9fMLdY71jYZeTw1rtJ-124" vertex="1">
          <mxGeometry y="30" width="77.5" height="20" as="geometry" />
        </mxCell>
        <mxCell id="nW9fMLdY71jYZeTw1rtJ-131" value="" style="endArrow=classic;html=1;fontSize=30;fontColor=#000000;dashed=1;dashPattern=1 4;" parent="1" edge="1">
          <mxGeometry width="50" height="50" relative="1" as="geometry">
            <mxPoint x="-1920" y="1190" as="sourcePoint" />
            <mxPoint x="-1690" y="1190" as="targetPoint" />
          </mxGeometry>
        </mxCell>
        <mxCell id="nW9fMLdY71jYZeTw1rtJ-132" value="&lt;font style=&quot;font-size: 12px&quot;&gt;dependency&lt;/font&gt;" style="edgeLabel;html=1;align=center;verticalAlign=middle;resizable=0;points=[];fontSize=30;fontColor=#000000;labelBackgroundColor=none;" parent="nW9fMLdY71jYZeTw1rtJ-131" vertex="1" connectable="0">
          <mxGeometry x="-0.2041" y="4" relative="1" as="geometry">
            <mxPoint x="17.14" y="4" as="offset" />
          </mxGeometry>
        </mxCell>
        <mxCell id="mJ4_hJBow98ez9A4RSFs-1" value="A story map example constructed from basic shapes (General shape library)" style="text;html=1;strokeColor=none;fillColor=none;align=center;verticalAlign=middle;whiteSpace=wrap;rounded=0;fontSize=20;fontStyle=2" parent="1" vertex="1">
          <mxGeometry x="-1683" y="1250" width="1030" height="20" as="geometry" />
        </mxCell>
        <mxCell id="mJ4_hJBow98ez9A4RSFs-2" value="" style="group" parent="1" vertex="1" connectable="0">
          <mxGeometry x="-1920" y="1110" width="240" height="60" as="geometry" />
        </mxCell>
        <mxCell id="qUOdwgdxU_DM8I0__7e0-1" value="" style="rounded=1;whiteSpace=wrap;html=1;strokeColor=#82b366;strokeWidth=1;fillColor=#d5e8d4;" parent="mJ4_hJBow98ez9A4RSFs-2" vertex="1">
          <mxGeometry width="120" height="60" as="geometry" />
        </mxCell>
        <mxCell id="qUOdwgdxU_DM8I0__7e0-2" value="" style="rounded=1;whiteSpace=wrap;html=1;strokeColor=#82b366;strokeWidth=1;fillColor=#d5e8d4;" parent="mJ4_hJBow98ez9A4RSFs-2" vertex="1">
          <mxGeometry x="120" width="120" height="60" as="geometry" />
        </mxCell>
        <mxCell id="qUOdwgdxU_DM8I0__7e0-3" value="touching tasks = dependency" style="text;html=1;strokeColor=none;fillColor=none;align=center;verticalAlign=middle;whiteSpace=wrap;rounded=0;" parent="mJ4_hJBow98ez9A4RSFs-2" vertex="1">
          <mxGeometry y="20" width="240" height="20" as="geometry" />
        </mxCell>
      </root>
    </mxGraphModel>
  </diagram>
  <diagram name="update-account" id="qFKpWn06HUlJq2veHpSm">
    <mxGraphModel dx="1735" dy="902" grid="1" gridSize="10" guides="1" tooltips="1" connect="1" arrows="1" fold="1" page="1" pageScale="1" pageWidth="1654" pageHeight="1169" math="0" shadow="0">
      <root>
        <mxCell id="OtLjK1SxLUBlRe3WaIa--0" />
        <mxCell id="OtLjK1SxLUBlRe3WaIa--1" parent="OtLjK1SxLUBlRe3WaIa--0" />
        <mxCell id="OtLjK1SxLUBlRe3WaIa--2" value="&lt;font style=&quot;font-size: 16px&quot;&gt;Customer wants to use their account&lt;/font&gt;" style="shape=table;childLayout=tableLayout;rowLines=0;columnLines=0;startSize=40;html=1;whiteSpace=wrap;collapsible=0;recursiveResize=0;expand=0;pointerEvents=0;fontStyle=1;align=center;labelBackgroundColor=none;strokeWidth=1;fontSize=30;fillColor=#f5f5f5;strokeColor=#666666;fontColor=#333333;" parent="OtLjK1SxLUBlRe3WaIa--1" vertex="1">
          <mxGeometry x="27" y="30" width="1600" height="930" as="geometry" />
        </mxCell>
        <mxCell id="OtLjK1SxLUBlRe3WaIa--3" value="Activities" style="swimlane;horizontal=0;points=[[0,0.5],[1,0.5]];portConstraint=eastwest;startSize=40;html=1;whiteSpace=wrap;collapsible=0;recursiveResize=0;expand=0;pointerEvents=0;fontStyle=1;fillColor=#d5e8d4;strokeColor=#82b366;" parent="OtLjK1SxLUBlRe3WaIa--2" vertex="1">
          <mxGeometry y="40" width="1600" height="296" as="geometry" />
        </mxCell>
        <mxCell id="OtLjK1SxLUBlRe3WaIa--25" value="Log in" style="swimlane;connectable=0;startSize=40;html=1;whiteSpace=wrap;collapsible=0;recursiveResize=0;expand=0;pointerEvents=0;fillColor=#f5f5f5;strokeColor=#666666;fontColor=#333333;" parent="OtLjK1SxLUBlRe3WaIa--3" vertex="1">
          <mxGeometry x="40" width="170" height="296" as="geometry" />
        </mxCell>
        <mxCell id="OtLjK1SxLUBlRe3WaIa--28" value="Enter username and password" style="rounded=1;whiteSpace=wrap;html=1;labelBackgroundColor=none;strokeWidth=1;fontSize=12;fillColor=#d5e8d4;strokeColor=#82b366;" parent="OtLjK1SxLUBlRe3WaIa--25" vertex="1">
          <mxGeometry x="20" y="60" width="120" height="60" as="geometry" />
        </mxCell>
        <mxCell id="OtLjK1SxLUBlRe3WaIa--4" value="Create a new account" style="swimlane;connectable=0;startSize=40;html=1;whiteSpace=wrap;collapsible=0;recursiveResize=0;expand=0;pointerEvents=0;fillColor=#f5f5f5;strokeColor=#666666;fontColor=#333333;" parent="OtLjK1SxLUBlRe3WaIa--3" vertex="1">
          <mxGeometry x="210" width="270" height="296" as="geometry" />
        </mxCell>
        <mxCell id="OtLjK1SxLUBlRe3WaIa--33" value="enter new username (email) and password" style="rounded=1;whiteSpace=wrap;html=1;labelBackgroundColor=none;strokeWidth=1;fontSize=12;fillColor=#d5e8d4;strokeColor=#82b366;" parent="OtLjK1SxLUBlRe3WaIa--4" vertex="1">
          <mxGeometry x="14" y="60" width="120" height="60" as="geometry" />
        </mxCell>
        <mxCell id="OtLjK1SxLUBlRe3WaIa--6" value="Update contact details" style="swimlane;connectable=0;startSize=40;html=1;whiteSpace=wrap;collapsible=0;recursiveResize=0;expand=0;pointerEvents=0;fillColor=#f5f5f5;strokeColor=#666666;fontColor=#333333;" parent="OtLjK1SxLUBlRe3WaIa--3" vertex="1">
          <mxGeometry x="480" width="280" height="296" as="geometry" />
        </mxCell>
        <mxCell id="OtLjK1SxLUBlRe3WaIa--34" value="Add new delivery address" style="rounded=1;whiteSpace=wrap;html=1;strokeWidth=1;fillColor=#d5e8d4;strokeColor=#82b366;" parent="OtLjK1SxLUBlRe3WaIa--6" vertex="1">
          <mxGeometry x="18" y="60" width="120" height="60" as="geometry" />
        </mxCell>
        <mxCell id="OtLjK1SxLUBlRe3WaIa--35" value="Add new phone number" style="rounded=1;whiteSpace=wrap;html=1;strokeWidth=1;fillColor=#d5e8d4;strokeColor=#82b366;" parent="OtLjK1SxLUBlRe3WaIa--6" vertex="1">
          <mxGeometry x="18" y="130" width="120" height="60" as="geometry" />
        </mxCell>
        <mxCell id="UWbwYJlnjAnOrRLH9oln-3" value="Update email address (username)" style="rounded=1;whiteSpace=wrap;html=1;strokeWidth=1;fillColor=#d5e8d4;strokeColor=#82b366;" parent="OtLjK1SxLUBlRe3WaIa--6" vertex="1">
          <mxGeometry x="18" y="200" width="120" height="60" as="geometry" />
        </mxCell>
        <mxCell id="OtLjK1SxLUBlRe3WaIa--18" value="Update payment details" style="swimlane;connectable=0;startSize=40;html=1;whiteSpace=wrap;collapsible=0;recursiveResize=0;expand=0;pointerEvents=0;fillColor=#f5f5f5;strokeColor=#666666;fontColor=#333333;" parent="OtLjK1SxLUBlRe3WaIa--3" vertex="1">
          <mxGeometry x="760" width="270" height="296" as="geometry" />
        </mxCell>
        <mxCell id="OtLjK1SxLUBlRe3WaIa--36" value="Add new payment method" style="rounded=1;whiteSpace=wrap;html=1;strokeWidth=1;fillColor=#d5e8d4;strokeColor=#82b366;" parent="OtLjK1SxLUBlRe3WaIa--18" vertex="1">
          <mxGeometry x="12" y="60" width="120" height="60" as="geometry" />
        </mxCell>
        <mxCell id="OtLjK1SxLUBlRe3WaIa--21" value="Review past orders" style="swimlane;connectable=0;startSize=40;html=1;whiteSpace=wrap;collapsible=0;recursiveResize=0;expand=0;pointerEvents=0;fillColor=#f5f5f5;strokeColor=#666666;fontColor=#333333;" parent="OtLjK1SxLUBlRe3WaIa--3" vertex="1">
          <mxGeometry x="1030" width="150" height="296" as="geometry" />
        </mxCell>
        <mxCell id="UWbwYJlnjAnOrRLH9oln-14" value="View all past orders" style="rounded=1;whiteSpace=wrap;html=1;strokeWidth=1;fillColor=#d5e8d4;strokeColor=#82b366;" parent="OtLjK1SxLUBlRe3WaIa--21" vertex="1">
          <mxGeometry x="14" y="50" width="120" height="60" as="geometry" />
        </mxCell>
        <mxCell id="OtLjK1SxLUBlRe3WaIa--38" value="Delete account" style="swimlane;connectable=0;startSize=40;html=1;whiteSpace=wrap;collapsible=0;recursiveResize=0;expand=0;pointerEvents=0;fillColor=#f5f5f5;strokeColor=#666666;fontColor=#333333;" parent="OtLjK1SxLUBlRe3WaIa--3" vertex="1">
          <mxGeometry x="1180" width="150" height="296" as="geometry" />
        </mxCell>
        <mxCell id="UWbwYJlnjAnOrRLH9oln-17" value="Confirm account deletion&amp;nbsp;" style="rounded=1;whiteSpace=wrap;html=1;strokeWidth=1;fillColor=#d5e8d4;strokeColor=#82b366;" parent="OtLjK1SxLUBlRe3WaIa--38" vertex="1">
          <mxGeometry x="13" y="50" width="120" height="60" as="geometry" />
        </mxCell>
        <mxCell id="UWbwYJlnjAnOrRLH9oln-0" value="Get help" style="swimlane;connectable=0;startSize=40;html=1;whiteSpace=wrap;collapsible=0;recursiveResize=0;expand=0;pointerEvents=0;fillColor=#f5f5f5;strokeColor=#666666;fontColor=#333333;" parent="OtLjK1SxLUBlRe3WaIa--3" vertex="1">
          <mxGeometry x="1330" width="270" height="296" as="geometry" />
        </mxCell>
        <mxCell id="UWbwYJlnjAnOrRLH9oln-20" value="Contact customer support" style="rounded=1;whiteSpace=wrap;html=1;strokeWidth=1;fillColor=#d5e8d4;strokeColor=#82b366;" parent="UWbwYJlnjAnOrRLH9oln-0" vertex="1">
          <mxGeometry x="11" y="50" width="120" height="60" as="geometry" />
        </mxCell>
        <mxCell id="UWbwYJlnjAnOrRLH9oln-24" value="Query an order or delivery" style="rounded=1;whiteSpace=wrap;html=1;strokeWidth=1;fillColor=#d5e8d4;strokeColor=#82b366;" parent="UWbwYJlnjAnOrRLH9oln-0" vertex="1">
          <mxGeometry x="131" y="50" width="120" height="60" as="geometry" />
        </mxCell>
        <mxCell id="UWbwYJlnjAnOrRLH9oln-28" value="Find information myself" style="rounded=1;whiteSpace=wrap;html=1;strokeWidth=1;fillColor=#d5e8d4;strokeColor=#82b366;" parent="UWbwYJlnjAnOrRLH9oln-0" vertex="1">
          <mxGeometry x="11" y="118" width="120" height="60" as="geometry" />
        </mxCell>
        <mxCell id="OtLjK1SxLUBlRe3WaIa--7" value="Tasks" style="swimlane;horizontal=0;points=[[0,0.5],[1,0.5]];portConstraint=eastwest;startSize=40;html=1;whiteSpace=wrap;collapsible=0;recursiveResize=0;expand=0;pointerEvents=0;fillColor=#dae8fc;strokeColor=#6c8ebf;" parent="OtLjK1SxLUBlRe3WaIa--2" vertex="1">
          <mxGeometry y="336" width="1600" height="298" as="geometry" />
        </mxCell>
        <mxCell id="OtLjK1SxLUBlRe3WaIa--26" style="swimlane;connectable=0;startSize=0;html=1;whiteSpace=wrap;collapsible=0;recursiveResize=0;expand=0;pointerEvents=0;" parent="OtLjK1SxLUBlRe3WaIa--7" vertex="1">
          <mxGeometry x="40" width="170" height="298" as="geometry" />
        </mxCell>
        <mxCell id="OtLjK1SxLUBlRe3WaIa--31" value="Retrieve forgotten password" style="rounded=1;whiteSpace=wrap;html=1;strokeWidth=1;fillColor=#dae8fc;strokeColor=#6c8ebf;" parent="OtLjK1SxLUBlRe3WaIa--26" vertex="1">
          <mxGeometry x="20" y="14" width="120" height="60" as="geometry" />
        </mxCell>
        <mxCell id="OtLjK1SxLUBlRe3WaIa--8" value="" style="swimlane;connectable=0;startSize=0;html=1;whiteSpace=wrap;collapsible=0;recursiveResize=0;expand=0;pointerEvents=0;" parent="OtLjK1SxLUBlRe3WaIa--7" vertex="1">
          <mxGeometry x="210" width="270" height="298" as="geometry" />
        </mxCell>
        <mxCell id="OtLjK1SxLUBlRe3WaIa--41" value="enter unique username (email)" style="rounded=1;whiteSpace=wrap;html=1;strokeWidth=1;fillColor=#dae8fc;strokeColor=#6c8ebf;" parent="OtLjK1SxLUBlRe3WaIa--8" vertex="1">
          <mxGeometry x="14" y="14" width="120" height="60" as="geometry" />
        </mxCell>
        <mxCell id="OtLjK1SxLUBlRe3WaIa--43" value="set two-factor authentication method" style="rounded=1;whiteSpace=wrap;html=1;strokeWidth=1;fillColor=#dae8fc;strokeColor=#6c8ebf;" parent="OtLjK1SxLUBlRe3WaIa--8" vertex="1">
          <mxGeometry x="134" y="154" width="120" height="60" as="geometry" />
        </mxCell>
        <mxCell id="OtLjK1SxLUBlRe3WaIa--44" value="set account recovery options" style="rounded=1;whiteSpace=wrap;html=1;strokeWidth=1;fillColor=#dae8fc;strokeColor=#6c8ebf;" parent="OtLjK1SxLUBlRe3WaIa--8" vertex="1">
          <mxGeometry x="16" y="154" width="120" height="60" as="geometry" />
        </mxCell>
        <mxCell id="UWbwYJlnjAnOrRLH9oln-11" value="enter password" style="rounded=1;whiteSpace=wrap;html=1;strokeWidth=1;fillColor=#dae8fc;strokeColor=#6c8ebf;" parent="OtLjK1SxLUBlRe3WaIa--8" vertex="1">
          <mxGeometry x="16" y="84" width="120" height="60" as="geometry" />
        </mxCell>
        <mxCell id="OtLjK1SxLUBlRe3WaIa--10" value="" style="swimlane;connectable=0;startSize=0;html=1;whiteSpace=wrap;collapsible=0;recursiveResize=0;expand=0;pointerEvents=0;" parent="OtLjK1SxLUBlRe3WaIa--7" vertex="1">
          <mxGeometry x="480" width="280" height="298" as="geometry" />
        </mxCell>
        <mxCell id="UWbwYJlnjAnOrRLH9oln-5" value="Delete delivery address" style="rounded=1;whiteSpace=wrap;html=1;strokeWidth=1;fillColor=#dae8fc;strokeColor=#6c8ebf;" parent="OtLjK1SxLUBlRe3WaIa--10" vertex="1">
          <mxGeometry x="138" y="14" width="120" height="60" as="geometry" />
        </mxCell>
        <mxCell id="OtLjK1SxLUBlRe3WaIa--37" value="Update delivery address" style="rounded=1;whiteSpace=wrap;html=1;strokeWidth=1;fillColor=#dae8fc;strokeColor=#6c8ebf;" parent="OtLjK1SxLUBlRe3WaIa--10" vertex="1">
          <mxGeometry x="18" y="14" width="120" height="60" as="geometry" />
        </mxCell>
        <mxCell id="UWbwYJlnjAnOrRLH9oln-7" value="Update phone number" style="rounded=1;whiteSpace=wrap;html=1;strokeWidth=1;fillColor=#dae8fc;strokeColor=#6c8ebf;" parent="OtLjK1SxLUBlRe3WaIa--10" vertex="1">
          <mxGeometry x="18" y="84" width="120" height="60" as="geometry" />
        </mxCell>
        <mxCell id="UWbwYJlnjAnOrRLH9oln-6" value="Delete phone number" style="rounded=1;whiteSpace=wrap;html=1;strokeWidth=1;fillColor=#dae8fc;strokeColor=#6c8ebf;" parent="OtLjK1SxLUBlRe3WaIa--10" vertex="1">
          <mxGeometry x="135.5" y="84" width="120" height="60" as="geometry" />
        </mxCell>
        <mxCell id="OtLjK1SxLUBlRe3WaIa--19" style="swimlane;connectable=0;startSize=0;html=1;whiteSpace=wrap;collapsible=0;recursiveResize=0;expand=0;pointerEvents=0;" parent="OtLjK1SxLUBlRe3WaIa--7" vertex="1">
          <mxGeometry x="760" width="270" height="298" as="geometry" />
        </mxCell>
        <mxCell id="UWbwYJlnjAnOrRLH9oln-4" value="Update payment method" style="rounded=1;whiteSpace=wrap;html=1;strokeWidth=1;fillColor=#dae8fc;strokeColor=#6c8ebf;" parent="OtLjK1SxLUBlRe3WaIa--19" vertex="1">
          <mxGeometry x="12" y="14" width="120" height="60" as="geometry" />
        </mxCell>
        <mxCell id="UWbwYJlnjAnOrRLH9oln-16" value="Delete payment method" style="rounded=1;whiteSpace=wrap;html=1;strokeWidth=1;fillColor=#dae8fc;strokeColor=#6c8ebf;" parent="OtLjK1SxLUBlRe3WaIa--19" vertex="1">
          <mxGeometry x="132" y="14" width="120" height="60" as="geometry" />
        </mxCell>
        <mxCell id="OtLjK1SxLUBlRe3WaIa--22" style="swimlane;connectable=0;startSize=0;html=1;whiteSpace=wrap;collapsible=0;recursiveResize=0;expand=0;pointerEvents=0;" parent="OtLjK1SxLUBlRe3WaIa--7" vertex="1">
          <mxGeometry x="1030" width="150" height="298" as="geometry" />
        </mxCell>
        <mxCell id="UWbwYJlnjAnOrRLH9oln-15" value="View itemised individual past order" style="rounded=1;whiteSpace=wrap;html=1;strokeWidth=1;fillColor=#dae8fc;strokeColor=#6c8ebf;" parent="OtLjK1SxLUBlRe3WaIa--22" vertex="1">
          <mxGeometry x="14" y="14" width="120" height="60" as="geometry" />
        </mxCell>
        <mxCell id="OtLjK1SxLUBlRe3WaIa--39" style="swimlane;connectable=0;startSize=0;html=1;whiteSpace=wrap;collapsible=0;recursiveResize=0;expand=0;pointerEvents=0;" parent="OtLjK1SxLUBlRe3WaIa--7" vertex="1">
          <mxGeometry x="1180" width="150" height="298" as="geometry" />
        </mxCell>
        <mxCell id="UWbwYJlnjAnOrRLH9oln-18" value="Receive account deletion confirmation request by email" style="rounded=1;whiteSpace=wrap;html=1;strokeWidth=1;fillColor=#dae8fc;strokeColor=#6c8ebf;" parent="OtLjK1SxLUBlRe3WaIa--39" vertex="1">
          <mxGeometry x="13" y="14" width="120" height="60" as="geometry" />
        </mxCell>
        <mxCell id="UWbwYJlnjAnOrRLH9oln-19" value="Receive account deletion confirmation" style="rounded=1;whiteSpace=wrap;html=1;strokeWidth=1;fillColor=#dae8fc;strokeColor=#6c8ebf;" parent="OtLjK1SxLUBlRe3WaIa--39" vertex="1">
          <mxGeometry x="13" y="84" width="120" height="60" as="geometry" />
        </mxCell>
        <mxCell id="UWbwYJlnjAnOrRLH9oln-1" style="swimlane;connectable=0;startSize=0;html=1;whiteSpace=wrap;collapsible=0;recursiveResize=0;expand=0;pointerEvents=0;" parent="OtLjK1SxLUBlRe3WaIa--7" vertex="1">
          <mxGeometry x="1330" width="270" height="298" as="geometry" />
        </mxCell>
        <mxCell id="UWbwYJlnjAnOrRLH9oln-21" value="Read FAQs" style="rounded=1;whiteSpace=wrap;html=1;strokeWidth=1;fillColor=#dae8fc;strokeColor=#6c8ebf;" parent="UWbwYJlnjAnOrRLH9oln-1" vertex="1">
          <mxGeometry x="11" y="14" width="120" height="60" as="geometry" />
        </mxCell>
        <mxCell id="UWbwYJlnjAnOrRLH9oln-23" value="Read legal and privacy agreements" style="rounded=1;whiteSpace=wrap;html=1;strokeWidth=1;fillColor=#dae8fc;strokeColor=#6c8ebf;" parent="UWbwYJlnjAnOrRLH9oln-1" vertex="1">
          <mxGeometry x="11" y="84" width="120" height="60" as="geometry" />
        </mxCell>
        <mxCell id="UWbwYJlnjAnOrRLH9oln-27" value="Learn about ordering and delivery" style="rounded=1;whiteSpace=wrap;html=1;strokeWidth=1;fillColor=#dae8fc;strokeColor=#6c8ebf;" parent="UWbwYJlnjAnOrRLH9oln-1" vertex="1">
          <mxGeometry x="11" y="154" width="120" height="60" as="geometry" />
        </mxCell>
        <mxCell id="UWbwYJlnjAnOrRLH9oln-26" value="Learn more about products" style="rounded=1;whiteSpace=wrap;html=1;strokeWidth=1;fillColor=#dae8fc;strokeColor=#6c8ebf;" parent="UWbwYJlnjAnOrRLH9oln-1" vertex="1">
          <mxGeometry x="11" y="224" width="120" height="60" as="geometry" />
        </mxCell>
        <mxCell id="OtLjK1SxLUBlRe3WaIa--11" value="Sub-tasks" style="swimlane;horizontal=0;points=[[0,0.5],[1,0.5]];portConstraint=eastwest;startSize=40;html=1;whiteSpace=wrap;collapsible=0;recursiveResize=0;expand=0;pointerEvents=0;fillColor=#e1d5e7;strokeColor=#9673a6;" parent="OtLjK1SxLUBlRe3WaIa--2" vertex="1">
          <mxGeometry y="634" width="1600" height="296" as="geometry" />
        </mxCell>
        <mxCell id="OtLjK1SxLUBlRe3WaIa--27" style="swimlane;connectable=0;startSize=0;html=1;whiteSpace=wrap;collapsible=0;recursiveResize=0;expand=0;pointerEvents=0;" parent="OtLjK1SxLUBlRe3WaIa--11" vertex="1">
          <mxGeometry x="40" width="170" height="296" as="geometry" />
        </mxCell>
        <mxCell id="UWbwYJlnjAnOrRLH9oln-12" value="Receive password reset link by email" style="rounded=1;whiteSpace=wrap;html=1;strokeWidth=1;fillColor=#e1d5e7;strokeColor=#9673a6;" parent="OtLjK1SxLUBlRe3WaIa--27" vertex="1">
          <mxGeometry x="20" y="16" width="120" height="60" as="geometry" />
        </mxCell>
        <mxCell id="OtLjK1SxLUBlRe3WaIa--12" value="" style="swimlane;connectable=0;startSize=0;html=1;whiteSpace=wrap;collapsible=0;recursiveResize=0;expand=0;pointerEvents=0;" parent="OtLjK1SxLUBlRe3WaIa--11" vertex="1">
          <mxGeometry x="210" width="270" height="296" as="geometry" />
        </mxCell>
        <mxCell id="OtLjK1SxLUBlRe3WaIa--42" value="ensure secure password" style="rounded=1;whiteSpace=wrap;html=1;strokeWidth=1;fillColor=#e1d5e7;strokeColor=#9673a6;" parent="OtLjK1SxLUBlRe3WaIa--12" vertex="1">
          <mxGeometry x="14" y="16" width="120" height="60" as="geometry" />
        </mxCell>
        <mxCell id="OtLjK1SxLUBlRe3WaIa--14" value="" style="swimlane;connectable=0;startSize=0;html=1;whiteSpace=wrap;collapsible=0;recursiveResize=0;expand=0;pointerEvents=0;" parent="OtLjK1SxLUBlRe3WaIa--11" vertex="1">
          <mxGeometry x="480" width="280" height="296" as="geometry" />
        </mxCell>
        <mxCell id="OtLjK1SxLUBlRe3WaIa--20" style="swimlane;connectable=0;startSize=0;html=1;whiteSpace=wrap;collapsible=0;recursiveResize=0;expand=0;pointerEvents=0;" parent="OtLjK1SxLUBlRe3WaIa--11" vertex="1">
          <mxGeometry x="760" width="270" height="296" as="geometry" />
        </mxCell>
        <mxCell id="OtLjK1SxLUBlRe3WaIa--23" style="swimlane;connectable=0;startSize=0;html=1;whiteSpace=wrap;collapsible=0;recursiveResize=0;expand=0;pointerEvents=0;" parent="OtLjK1SxLUBlRe3WaIa--11" vertex="1">
          <mxGeometry x="1030" width="150" height="296" as="geometry" />
        </mxCell>
        <mxCell id="UWbwYJlnjAnOrRLH9oln-31" value="Leave feedback" style="rounded=1;whiteSpace=wrap;html=1;strokeWidth=1;fillColor=#e1d5e7;strokeColor=#9673a6;" parent="OtLjK1SxLUBlRe3WaIa--23" vertex="1">
          <mxGeometry x="10" y="16" width="120" height="60" as="geometry" />
        </mxCell>
        <mxCell id="OtLjK1SxLUBlRe3WaIa--40" style="swimlane;connectable=0;startSize=0;html=1;whiteSpace=wrap;collapsible=0;recursiveResize=0;expand=0;pointerEvents=0;" parent="OtLjK1SxLUBlRe3WaIa--11" vertex="1">
          <mxGeometry x="1180" width="150" height="296" as="geometry" />
        </mxCell>
        <mxCell id="UWbwYJlnjAnOrRLH9oln-2" style="swimlane;connectable=0;startSize=0;html=1;whiteSpace=wrap;collapsible=0;recursiveResize=0;expand=0;pointerEvents=0;" parent="OtLjK1SxLUBlRe3WaIa--11" vertex="1">
          <mxGeometry x="1330" width="270" height="296" as="geometry" />
        </mxCell>
        <mxCell id="UWbwYJlnjAnOrRLH9oln-29" value="Read product reviews" style="rounded=1;whiteSpace=wrap;html=1;strokeWidth=1;fillColor=#e1d5e7;strokeColor=#9673a6;" parent="UWbwYJlnjAnOrRLH9oln-2" vertex="1">
          <mxGeometry x="11" y="16" width="120" height="60" as="geometry" />
        </mxCell>
        <mxCell id="UWbwYJlnjAnOrRLH9oln-30" value="Communicate with other customers" style="rounded=1;whiteSpace=wrap;html=1;strokeWidth=1;fillColor=#e1d5e7;strokeColor=#9673a6;" parent="UWbwYJlnjAnOrRLH9oln-2" vertex="1">
          <mxGeometry x="11" y="86" width="120" height="60" as="geometry" />
        </mxCell>
        <mxCell id="UWbwYJlnjAnOrRLH9oln-10" style="edgeStyle=orthogonalEdgeStyle;rounded=0;orthogonalLoop=1;jettySize=auto;html=1;dashed=1;dashPattern=1 4;fontSize=12;fontColor=#000000;" parent="OtLjK1SxLUBlRe3WaIa--2" source="OtLjK1SxLUBlRe3WaIa--41" target="UWbwYJlnjAnOrRLH9oln-3" edge="1">
          <mxGeometry relative="1" as="geometry">
            <Array as="points">
              <mxPoint x="505" y="320" />
              <mxPoint x="901" y="320" />
            </Array>
          </mxGeometry>
        </mxCell>
        <mxCell id="U-jJmerVUzA19QD3KrKk-0" value="A story map example in a cross-functional flowchart shape (Misc shape library)" style="text;html=1;strokeColor=none;fillColor=none;align=center;verticalAlign=middle;whiteSpace=wrap;rounded=0;fontSize=20;fontStyle=2" parent="OtLjK1SxLUBlRe3WaIa--1" vertex="1">
          <mxGeometry x="312" y="1010" width="1030" height="20" as="geometry" />
        </mxCell>
      </root>
    </mxGraphModel>
  </diagram>
</mxfile>
